<svg xmlns="http://www.w3.org/2000/svg" xmlns:xlink="http://www.w3.org/1999/xlink" xmlns:s="https://github.com/nturley/netlistsvg" width="391" height="212"><style>svg {
  stroke:#000;
  fill:none;
}
text {
  fill:#000;
  stroke:none;
  font-size:10px;
  font-weight: bold;
  font-family: "Courier New", monospace;
}
line {
    stroke-linecap: round;
}
.nodelabel {
  text-anchor: middle;
}
.inputPortLabel {
  text-anchor: end;
}
.splitjoinBody {
  fill:#000;
}</style><g s:type="inputExt" transform="translate(12,170.5)" s:width="30" s:height="20" id="cell_c"><text x="15" y="-4" class="nodelabel cell_c" s:attribute="ref">c</text><s:alias val="$_inputExt_"/><path d="M0,0 L0,20 L15,20 L30,10 L15,0 Z" class="cell_c"/><g s:x="30" s:y="10" s:pid="Y"/></g><g s:type="inputExt" transform="translate(77,107)" s:width="30" s:height="20" id="cell_d"><text x="15" y="-4" class="nodelabel cell_d" s:attribute="ref">d</text><s:alias val="$_inputExt_"/><path d="M0,0 L0,20 L15,20 L30,10 L15,0 Z" class="cell_d"/><g s:x="30" s:y="10" s:pid="Y"/></g><g s:type="outputExt" transform="translate(349,54.5)" s:width="30" s:height="20" id="cell_y"><text x="15" y="-4" class="nodelabel cell_y" s:attribute="ref">y</text><s:alias val="$_outputExt_"/><path d="M30,0 L30,20 L15,20 L0,10 L15,0 Z" class="cell_y"/><g s:x="0" s:y="10" s:pid="A"/></g><g s:type="constant" transform="translate(142,22)" s:width="30" s:height="20" id="cell_101"><text x="15" y="-4" class="nodelabel cell_101" s:attribute="ref">101</text><s:alias val="$_constant_"/><rect width="30" height="20" class="cell_101"/><g s:x="31" s:y="10" s:pid="Y"/></g><g s:type="join" transform="translate(255,44)" s:width="4" s:height="40" id="cell_$join$,8,9,10,2,5,5,5,3,4,"><rect width="5" height="120" class="splitjoinBody" s:generic="body"/><s:alias val="$_join_"/><g s:x="5" s:y="20" s:pid="out"/><g transform="translate(0,10)" s:x="0" s:y="10" s:pid="in0"><text x="-3" y="-4" class="inputPortLabel">0:2</text></g><g transform="translate(0,30)" s:x="0" s:y="10" s:pid="in0"><text x="-3" y="-4" class="inputPortLabel">3</text></g><g transform="translate(0,50)" s:x="0" s:y="10" s:pid="in0"><text x="-3" y="-4" class="inputPortLabel">4</text></g><g transform="translate(0,70)" s:x="0" s:y="10" s:pid="in0"><text x="-3" y="-4" class="inputPortLabel">5</text></g><g transform="translate(0,90)" s:x="0" s:y="10" s:pid="in0"><text x="-3" y="-4" class="inputPortLabel">6</text></g><g transform="translate(0,110)" s:x="0" s:y="10" s:pid="in0"><text x="-3" y="-4" class="inputPortLabel">7:8</text></g></g><g s:type="split" transform="translate(157,160)" s:width="5" s:height="40" id="cell_$split$,2,3,4,"><rect width="5" height="40" class="splitjoinBody" s:generic="body"/><s:alias val="$_split_"/><g s:x="0" s:y="20" s:pid="in"/><g transform="translate(4,10)" s:x="4" s:y="10" s:pid="out0"><text x="5" y="-4">0</text></g><g transform="translate(4,30)" s:x="4" s:y="10" s:pid="out0"><text x="5" y="-4">1:2</text></g></g><g s:type="split" transform="translate(208,84)" s:width="5" s:height="40" id="cell_$split$,5,6,7,"><rect width="5" height="20" class="splitjoinBody" s:generic="body"/><s:alias val="$_split_"/><g s:x="0" s:y="20" s:pid="in"/><g transform="translate(4,10)" s:x="4" s:y="10" s:pid="out0"><text x="5" y="-4">0</text></g></g><line x1="261" x2="349" y1="64.5" y2="64.5" class="net_8,9,10,2,5,5,5,3,4 width_9" style="stroke-width: 2"/><line x1="173" x2="255.5" y1="32" y2="32" class="net_8,9,10 width_3" style="stroke-width: 2"/><line x1="255.5" x2="255.5" y1="32" y2="54" class="net_8,9,10 width_3" style="stroke-width: 2"/><line x1="162" x2="183" y1="170.5" y2="170.5" class="net_2 width_1" style="stroke-width: 1"/><line x1="183" x2="183" y1="170.5" y2="73" class="net_2 width_1" style="stroke-width: 1"/><line x1="183" x2="230" y1="73" y2="73" class="net_2 width_1" style="stroke-width: 1"/><line x1="230" x2="230" y1="73" y2="74.5" class="net_2 width_1" style="stroke-width: 1"/><line x1="230" x2="255" y1="74.5" y2="74.5" class="net_2 width_1" style="stroke-width: 1"/><line x1="213" x2="255" y1="94.5" y2="94.5" class="net_5 width_1" style="stroke-width: 1"/><line x1="213" x2="230" y1="94.5" y2="94.5" class="net_5 width_1" style="stroke-width: 1"/><line x1="230" x2="230" y1="94.5" y2="114.5" class="net_5 width_1" style="stroke-width: 1"/><circle cx="230" cy="94.5" r="2" style="fill:#000" class="net_5 width_1"/><circle cx="230" cy="114.5" r="2" style="fill:#000" class="net_5 width_1"/><line x1="230" x2="255" y1="114.5" y2="114.5" class="net_5 width_1" style="stroke-width: 1"/><line x1="213" x2="230" y1="94.5" y2="94.5" class="net_5 width_1" style="stroke-width: 1"/><line x1="230" x2="230" y1="94.5" y2="134.5" class="net_5 width_1" style="stroke-width: 1"/><line x1="230" x2="255" y1="134.5" y2="134.5" class="net_5 width_1" style="stroke-width: 1"/><line x1="162" x2="255.5" y1="190.5" y2="190.5" class="net_3,4 width_2" style="stroke-width: 2"/><line x1="255.5" x2="255.5" y1="190.5" y2="155" class="net_3,4 width_2" style="stroke-width: 2"/><line x1="42" x2="157" y1="180.5" y2="180.5" class="net_2,3,4 width_3" style="stroke-width: 2"/><line x1="107" x2="208.5" y1="117" y2="117" class="net_5,6,7 width_3" style="stroke-width: 2"/><line x1="208.5" x2="208.5" y1="117" y2="105" class="net_5,6,7 width_3" style="stroke-width: 2"/><rect x="311" y="59.5" width="16" height="9" class="net_8,9,10,2,5,5,5,3,4 width_9 busLabel_9" style="fill: white; stroke: none"/><text x="310" y="67.5" class="net_8,9,10,2,5,5,5,3,4 width_9 busLabel_9">/9/</text><rect x="213" y="27" width="16" height="9" class="net_8,9,10 width_3 busLabel_3" style="fill: white; stroke: none"/><text x="212" y="35" class="net_8,9,10 width_3 busLabel_3">/3/</text><rect x="213" y="185.5" width="16" height="9" class="net_3,4 width_2 busLabel_2" style="fill: white; stroke: none"/><text x="212" y="193.5" class="net_3,4 width_2 busLabel_2">/2/</text><rect x="91" y="175.5" width="16" height="9" class="net_2,3,4 width_3 busLabel_3" style="fill: white; stroke: none"/><text x="90" y="183.5" class="net_2,3,4 width_3 busLabel_3">/3/</text><rect x="156.5" y="112" width="16" height="9" class="net_5,6,7 width_3 busLabel_3" style="fill: white; stroke: none"/><text x="155.5" y="120" class="net_5,6,7 width_3 busLabel_3">/3/</text></svg>