<svg xmlns="http://www.w3.org/2000/svg" xmlns:xlink="http://www.w3.org/1999/xlink" xmlns:s="https://github.com/nturley/netlistsvg" width="316" height="174"><style>svg {
  stroke:#000;
  fill:none;
}
text {
  fill:#000;
  stroke:none;
  font-size:10px;
  font-weight: bold;
  font-family: "Courier New", monospace;
}
line {
    stroke-linecap: round;
}
.nodelabel {
  text-anchor: middle;
}
.inputPortLabel {
  text-anchor: end;
}
.splitjoinBody {
  fill:#000;
}</style><g s:type="not" transform="translate(144,22)" s:width="30" s:height="20" id="cell_$abc$110$auto$blifparse.cc:396:parse_blif$111"><s:alias val="$_NOT_"/><s:alias val="$not"/><s:alias val="$logic_not"/><path d="M0,0 L0,20 L20,10 Z" class="cell_$abc$110$auto$blifparse.cc:396:parse_blif$111"/><circle cx="24" cy="10" r="3" class="cell_$abc$110$auto$blifparse.cc:396:parse_blif$111"/><g s:x="-1" s:y="10" s:pid="A"/><g s:x="27" s:y="10" s:pid="Y"/></g><g s:type="not" transform="translate(78,142)" s:width="30" s:height="20" id="cell_$abc$110$auto$blifparse.cc:396:parse_blif$112"><s:alias val="$_NOT_"/><s:alias val="$not"/><s:alias val="$logic_not"/><path d="M0,0 L0,20 L20,10 Z" class="cell_$abc$110$auto$blifparse.cc:396:parse_blif$112"/><circle cx="24" cy="10" r="3" class="cell_$abc$110$auto$blifparse.cc:396:parse_blif$112"/><g s:x="-1" s:y="10" s:pid="A"/><g s:x="27" s:y="10" s:pid="Y"/></g><g s:type="or" transform="translate(143.66666666666666,92)" s:width="30" s:height="25" id="cell_$abc$110$auto$blifparse.cc:396:parse_blif$113"><s:alias val="$or"/><s:alias val="$logic_or"/><s:alias val="$_OR_"/><s:alias val="$reduce_or"/><s:alias val="$reduce_bool"/><path d="M0,0 A30 25 0 0 1 0,25 A30 25 0 0 0 30,12.5 A30 25 0 0 0 0,0" class="cell_$abc$110$auto$blifparse.cc:396:parse_blif$113"/><g s:x="2" s:y="5" s:pid="A"/><g s:x="2" s:y="20" s:pid="B"/><g s:x="30" s:y="12.5" s:pid="Y"/></g><g s:type="and" transform="translate(209,27)" s:width="30" s:height="25" id="cell_$abc$110$auto$blifparse.cc:396:parse_blif$114"><s:alias val="$and"/><s:alias val="$logic_and"/><s:alias val="$_AND_"/><s:alias val="$reduce_and"/><path d="M0,0 L0,25 L15,25 A15 12.5 0 0 0 15,0 Z" class="cell_$abc$110$auto$blifparse.cc:396:parse_blif$114"/><g s:x="0" s:y="5" s:pid="A"/><g s:x="0" s:y="20" s:pid="B"/><g s:x="30" s:y="12.5" s:pid="Y"/></g><g s:type="inputExt" transform="translate(78,87)" s:width="30" s:height="20" id="cell_a"><text x="15" y="-4" class="nodelabel cell_a" s:attribute="ref">a</text><s:alias val="$_inputExt_"/><path d="M0,0 L0,20 L15,20 L30,10 L15,0 Z" class="cell_a"/><g s:x="30" s:y="10" s:pid="Y"/></g><g s:type="inputExt" transform="translate(78,22)" s:width="30" s:height="20" id="cell_b"><text x="15" y="-4" class="nodelabel cell_b" s:attribute="ref">b</text><s:alias val="$_inputExt_"/><path d="M0,0 L0,20 L15,20 L30,10 L15,0 Z" class="cell_b"/><g s:x="30" s:y="10" s:pid="Y"/></g><g s:type="inputExt" transform="translate(12,142)" s:width="30" s:height="20" id="cell_c"><text x="15" y="-4" class="nodelabel cell_c" s:attribute="ref">c</text><s:alias val="$_inputExt_"/><path d="M0,0 L0,20 L15,20 L30,10 L15,0 Z" class="cell_c"/><g s:x="30" s:y="10" s:pid="Y"/></g><g s:type="outputExt" transform="translate(274,29.5)" s:width="30" s:height="20" id="cell_y"><text x="15" y="-4" class="nodelabel cell_y" s:attribute="ref">y</text><s:alias val="$_outputExt_"/><path d="M30,0 L30,20 L15,20 L0,10 L15,0 Z" class="cell_y"/><g s:x="0" s:y="10" s:pid="A"/></g><line x1="108" x2="143" y1="32" y2="32" class="net_3 width_1" style="stroke-width: 1"/><line x1="42" x2="77" y1="152" y2="152" class="net_4 width_1" style="stroke-width: 1"/><line x1="108" x2="145.66666666666666" y1="97" y2="97" class="net_2 width_1" style="stroke-width: 1"/><line x1="105" x2="118" y1="152" y2="152" class="net_7 width_1" style="stroke-width: 1"/><line x1="118" x2="118" y1="152" y2="112" class="net_7 width_1" style="stroke-width: 1"/><line x1="118" x2="145.66666666666666" y1="112" y2="112" class="net_7 width_1" style="stroke-width: 1"/><line x1="171" x2="209" y1="32" y2="32" class="net_6 width_1" style="stroke-width: 1"/><line x1="173.66666666666666" x2="184" y1="104.5" y2="104.5" class="net_8 width_1" style="stroke-width: 1"/><line x1="184" x2="184" y1="104.5" y2="47" class="net_8 width_1" style="stroke-width: 1"/><line x1="184" x2="209" y1="47" y2="47" class="net_8 width_1" style="stroke-width: 1"/><line x1="239" x2="274" y1="39.5" y2="39.5" class="net_5 width_1" style="stroke-width: 1"/></svg>