<svg xmlns="http://www.w3.org/2000/svg" xmlns:xlink="http://www.w3.org/1999/xlink" xmlns:s="https://github.com/nturley/netlistsvg" width="521" height="249.5"><style>svg {
  stroke:#000;
  fill:none;
}
text {
  fill:#000;
  stroke:none;
  font-size:10px;
  font-weight: bold;
  font-family: "Courier New", monospace;
}
line {
    stroke-linecap: round;
}
.nodelabel {
  text-anchor: middle;
}
.inputPortLabel {
  text-anchor: end;
}
.splitjoinBody {
  fill:#000;
}</style><g s:type="generic" transform="translate(268,66.5)" s:width="30" s:height="40" id="cell_lsbmux"><text x="15" y="-4" class="nodelabel cell_lsbmux" s:attribute="ref">mux2</text><rect width="30" height="60" s:generic="body" class="cell_lsbmux"/><g transform="translate(0,10)" s:x="0" s:y="10" s:pid="in0" id="port_lsbmux~d0"><text x="-3" y="-4" class="inputPortLabel cell_lsbmux">d0</text></g><g transform="translate(0,30)" s:x="0" s:y="10" s:pid="in0" id="port_lsbmux~d1"><text x="-3" y="-4" class="inputPortLabel cell_lsbmux">d1</text></g><g transform="translate(0,50)" s:x="0" s:y="10" s:pid="in0" id="port_lsbmux~s"><text x="-3" y="-4" class="inputPortLabel cell_lsbmux">s</text></g><g transform="translate(30,10)" s:x="30" s:y="10" s:pid="out0" id="port_lsbmux~y"><text x="5" y="-4" style="fill:#000; stroke:none" class="cell_lsbmux">y</text></g></g><g s:type="generic" transform="translate(268,174.5)" s:width="30" s:height="40" id="cell_msbmux"><text x="15" y="-4" class="nodelabel cell_msbmux" s:attribute="ref">mux2</text><rect width="30" height="60" s:generic="body" class="cell_msbmux"/><g transform="translate(0,10)" s:x="0" s:y="10" s:pid="in0" id="port_msbmux~d0"><text x="-3" y="-4" class="inputPortLabel cell_msbmux">d0</text></g><g transform="translate(0,30)" s:x="0" s:y="10" s:pid="in0" id="port_msbmux~d1"><text x="-3" y="-4" class="inputPortLabel cell_msbmux">d1</text></g><g transform="translate(0,50)" s:x="0" s:y="10" s:pid="in0" id="port_msbmux~s"><text x="-3" y="-4" class="inputPortLabel cell_msbmux">s</text></g><g transform="translate(30,10)" s:x="30" s:y="10" s:pid="out0" id="port_msbmux~y"><text x="5" y="-4" style="fill:#000; stroke:none" class="cell_msbmux">y</text></g></g><g s:type="inputExt" transform="translate(12,36)" s:width="30" s:height="20" id="cell_d0"><text x="15" y="-4" class="nodelabel cell_d0" s:attribute="ref">d0</text><s:alias val="$_inputExt_"/><path d="M0,0 L0,20 L15,20 L30,10 L15,0 Z" class="cell_d0"/><g s:x="30" s:y="10" s:pid="Y"/></g><g s:type="inputExt" transform="translate(12,185)" s:width="30" s:height="20" id="cell_d1"><text x="15" y="-4" class="nodelabel cell_d1" s:attribute="ref">d1</text><s:alias val="$_inputExt_"/><path d="M0,0 L0,20 L15,20 L30,10 L15,0 Z" class="cell_d1"/><g s:x="30" s:y="10" s:pid="Y"/></g><g s:type="inputExt" transform="translate(175,107)" s:width="30" s:height="20" id="cell_s"><text x="15" y="-4" class="nodelabel cell_s" s:attribute="ref">s</text><s:alias val="$_inputExt_"/><path d="M0,0 L0,20 L15,20 L30,10 L15,0 Z" class="cell_s"/><g s:x="30" s:y="10" s:pid="Y"/></g><g s:type="outputExt" transform="translate(479,165)" s:width="30" s:height="20" id="cell_y"><text x="15" y="-4" class="nodelabel cell_y" s:attribute="ref">y</text><s:alias val="$_outputExt_"/><path d="M30,0 L30,20 L15,20 L0,10 L15,0 Z" class="cell_y"/><g s:x="0" s:y="10" s:pid="A"/></g><g s:type="join" transform="translate(399,154.5)" s:width="4" s:height="40" id="cell_$join$,19,20,21,22,23,24,25,26,"><rect width="5" height="40" class="splitjoinBody" s:generic="body"/><s:alias val="$_join_"/><g s:x="5" s:y="20" s:pid="out"/><g transform="translate(0,10)" s:x="0" s:y="10" s:pid="in0"><text x="-3" y="-4" class="inputPortLabel">0:3</text></g><g transform="translate(0,30)" s:x="0" s:y="10" s:pid="in0"><text x="-3" y="-4" class="inputPortLabel">4:7</text></g></g><g s:type="split" transform="translate(116,25.5)" s:width="5" s:height="40" id="cell_$split$,2,3,4,5,6,7,8,9,"><rect width="5" height="40" class="splitjoinBody" s:generic="body"/><s:alias val="$_split_"/><g s:x="0" s:y="20" s:pid="in"/><g transform="translate(4,10)" s:x="4" s:y="10" s:pid="out0"><text x="5" y="-4">0:3</text></g><g transform="translate(4,30)" s:x="4" s:y="10" s:pid="out0"><text x="5" y="-4">4:7</text></g></g><g s:type="split" transform="translate(116,174.5)" s:width="5" s:height="40" id="cell_$split$,10,11,12,13,14,15,16,17,"><rect width="5" height="40" class="splitjoinBody" s:generic="body"/><s:alias val="$_split_"/><g s:x="0" s:y="20" s:pid="in"/><g transform="translate(4,10)" s:x="4" s:y="10" s:pid="out0"><text x="5" y="-4">0:3</text></g><g transform="translate(4,30)" s:x="4" s:y="10" s:pid="out0"><text x="5" y="-4">4:7</text></g></g><line x1="121" x2="150" y1="36" y2="36" class="net_2,3,4,5 width_4" style="stroke-width: 2"/><line x1="150" x2="150" y1="36" y2="16" class="net_2,3,4,5 width_4" style="stroke-width: 2"/><line x1="150" x2="245" y1="16" y2="16" class="net_2,3,4,5 width_4" style="stroke-width: 2"/><line x1="245" x2="245" y1="16" y2="77" class="net_2,3,4,5 width_4" style="stroke-width: 2"/><line x1="245" x2="268" y1="77" y2="77" class="net_2,3,4,5 width_4" style="stroke-width: 2"/><line x1="121" x2="160" y1="185" y2="185" class="net_10,11,12,13 width_4" style="stroke-width: 2"/><line x1="160" x2="160" y1="185" y2="36" class="net_10,11,12,13 width_4" style="stroke-width: 2"/><line x1="160" x2="235" y1="36" y2="36" class="net_10,11,12,13 width_4" style="stroke-width: 2"/><line x1="235" x2="235" y1="36" y2="97" class="net_10,11,12,13 width_4" style="stroke-width: 2"/><line x1="235" x2="268" y1="97" y2="97" class="net_10,11,12,13 width_4" style="stroke-width: 2"/><line x1="205" x2="268" y1="117" y2="117" class="net_18 width_1" style="stroke-width: 1"/><line x1="205" x2="215" y1="117" y2="117" class="net_18 width_1" style="stroke-width: 1"/><line x1="215" x2="215" y1="117" y2="225" class="net_18 width_1" style="stroke-width: 1"/><circle cx="215" cy="117" r="2" style="fill:#000" class="net_18 width_1"/><line x1="215" x2="268" y1="225" y2="225" class="net_18 width_1" style="stroke-width: 1"/><line x1="121" x2="225" y1="56" y2="56" class="net_6,7,8,9 width_4" style="stroke-width: 2"/><line x1="225" x2="225" y1="56" y2="185" class="net_6,7,8,9 width_4" style="stroke-width: 2"/><line x1="225" x2="268" y1="185" y2="185" class="net_6,7,8,9 width_4" style="stroke-width: 2"/><line x1="121" x2="268" y1="205" y2="205" class="net_14,15,16,17 width_4" style="stroke-width: 2"/><line x1="405" x2="479" y1="175" y2="175" class="net_19,20,21,22,23,24,25,26 width_8" style="stroke-width: 2"/><line x1="299" x2="355" y1="77" y2="77" class="net_19,20,21,22 width_4" style="stroke-width: 2"/><line x1="355" x2="355" y1="77" y2="165" class="net_19,20,21,22 width_4" style="stroke-width: 2"/><line x1="355" x2="399" y1="165" y2="165" class="net_19,20,21,22 width_4" style="stroke-width: 2"/><line x1="299" x2="399" y1="185" y2="185" class="net_23,24,25,26 width_4" style="stroke-width: 2"/><line x1="42" x2="116" y1="46" y2="46" class="net_2,3,4,5,6,7,8,9 width_8" style="stroke-width: 2"/><line x1="42" x2="116" y1="195" y2="195" class="net_10,11,12,13,14,15,16,17 width_8" style="stroke-width: 2"/><rect x="189" y="11" width="16" height="9" class="net_2,3,4,5 width_4 busLabel_4" style="fill: white; stroke: none"/><text x="188" y="19" class="net_2,3,4,5 width_4 busLabel_4">/4/</text><rect x="189" y="31" width="16" height="9" class="net_10,11,12,13 width_4 busLabel_4" style="fill: white; stroke: none"/><text x="188" y="39" class="net_10,11,12,13 width_4 busLabel_4">/4/</text><rect x="189" y="51" width="16" height="9" class="net_6,7,8,9 width_4 busLabel_4" style="fill: white; stroke: none"/><text x="188" y="59" class="net_6,7,8,9 width_4 busLabel_4">/4/</text><rect x="189" y="200" width="16" height="9" class="net_14,15,16,17 width_4 busLabel_4" style="fill: white; stroke: none"/><text x="188" y="208" class="net_14,15,16,17 width_4 busLabel_4">/4/</text><rect x="441" y="170" width="16" height="9" class="net_19,20,21,22,23,24,25,26 width_8 busLabel_8" style="fill: white; stroke: none"/><text x="440" y="178" class="net_19,20,21,22,23,24,25,26 width_8 busLabel_8">/8/</text><rect x="342" y="72" width="16" height="9" class="net_19,20,21,22 width_4 busLabel_4" style="fill: white; stroke: none"/><text x="341" y="80" class="net_19,20,21,22 width_4 busLabel_4">/4/</text><rect x="342" y="180" width="16" height="9" class="net_23,24,25,26 width_4 busLabel_4" style="fill: white; stroke: none"/><text x="341" y="188" class="net_23,24,25,26 width_4 busLabel_4">/4/</text><rect x="78" y="41" width="16" height="9" class="net_2,3,4,5,6,7,8,9 width_8 busLabel_8" style="fill: white; stroke: none"/><text x="77" y="49" class="net_2,3,4,5,6,7,8,9 width_8 busLabel_8">/8/</text><rect x="78" y="190" width="16" height="9" class="net_10,11,12,13,14,15,16,17 width_8 busLabel_8" style="fill: white; stroke: none"/><text x="77" y="198" class="net_10,11,12,13,14,15,16,17 width_8 busLabel_8">/8/</text></svg>