<svg xmlns="http://www.w3.org/2000/svg" xmlns:xlink="http://www.w3.org/1999/xlink" xmlns:s="https://github.com/nturley/netlistsvg" width="469" height="496.5"><style>svg {
  stroke:#000;
  fill:none;
}
text {
  fill:#000;
  stroke:none;
  font-size:10px;
  font-weight: bold;
  font-family: "Courier New", monospace;
}
line {
    stroke-linecap: round;
}
.nodelabel {
  text-anchor: middle;
}
.inputPortLabel {
  text-anchor: end;
}
.splitjoinBody {
  fill:#000;
}</style><g s:type="reduce_nor" transform="translate(163,12)" s:width="33" s:height="25" id="cell_$abc$135$auto$blifparse.cc:396:parse_blif$136"><s:alias val="$nor"/><s:alias val="$reduce_nor"/><s:alias val="$_NOR_"/><s:alias val="$_ORNOT_"/><path d="M0,0 A30 25 0 0 1 0,25 A30 25 0 0 0 30,12.5 A30 25 0 0 0 0,0" class="cell_$abc$135$auto$blifparse.cc:396:parse_blif$136"/><circle cx="33" cy="12.5" r="3" class="cell_$abc$135$auto$blifparse.cc:396:parse_blif$136"/><g s:x="2" s:y="5" s:pid="A"/><g s:x="2" s:y="20" s:pid="B"/><g s:x="36" s:y="12.5" s:pid="Y"/></g><g s:type="andnot" transform="translate(265,19.5)" s:width="30" s:height="25" id="cell_$abc$135$auto$blifparse.cc:396:parse_blif$137"><s:alias val="$_ANDNOT_"/><path d="M0,0 L0,25 L15,25 A15 12.5 0 0 0 15,0 Z" class="cell_$abc$135$auto$blifparse.cc:396:parse_blif$137"/><circle cx="-3" cy="20" r="3"/><g s:x="0" s:y="5" s:pid="A"/><g s:x="-6" s:y="20" s:pid="B"/><g s:x="30" s:y="12.5" s:pid="Y"/></g><g s:type="andnot" transform="translate(169,72)" s:width="30" s:height="25" id="cell_$abc$135$auto$blifparse.cc:396:parse_blif$138"><s:alias val="$_ANDNOT_"/><path d="M0,0 L0,25 L15,25 A15 12.5 0 0 0 15,0 Z" class="cell_$abc$135$auto$blifparse.cc:396:parse_blif$138"/><circle cx="-3" cy="20" r="3"/><g s:x="0" s:y="5" s:pid="A"/><g s:x="-6" s:y="20" s:pid="B"/><g s:x="30" s:y="12.5" s:pid="Y"/></g><g s:type="andnot" transform="translate(265,79.5)" s:width="30" s:height="25" id="cell_$abc$135$auto$blifparse.cc:396:parse_blif$139"><s:alias val="$_ANDNOT_"/><path d="M0,0 L0,25 L15,25 A15 12.5 0 0 0 15,0 Z" class="cell_$abc$135$auto$blifparse.cc:396:parse_blif$139"/><circle cx="-3" cy="20" r="3"/><g s:x="0" s:y="5" s:pid="A"/><g s:x="-6" s:y="20" s:pid="B"/><g s:x="30" s:y="12.5" s:pid="Y"/></g><g s:type="andnot" transform="translate(169,227)" s:width="30" s:height="25" id="cell_$abc$135$auto$blifparse.cc:396:parse_blif$140"><s:alias val="$_ANDNOT_"/><path d="M0,0 L0,25 L15,25 A15 12.5 0 0 0 15,0 Z" class="cell_$abc$135$auto$blifparse.cc:396:parse_blif$140"/><circle cx="-3" cy="20" r="3"/><g s:x="0" s:y="5" s:pid="A"/><g s:x="-6" s:y="20" s:pid="B"/><g s:x="30" s:y="12.5" s:pid="Y"/></g><g s:type="andnot" transform="translate(265,279.5)" s:width="30" s:height="25" id="cell_$abc$135$auto$blifparse.cc:396:parse_blif$141"><s:alias val="$_ANDNOT_"/><path d="M0,0 L0,25 L15,25 A15 12.5 0 0 0 15,0 Z" class="cell_$abc$135$auto$blifparse.cc:396:parse_blif$141"/><circle cx="-3" cy="20" r="3"/><g s:x="0" s:y="5" s:pid="A"/><g s:x="-6" s:y="20" s:pid="B"/><g s:x="30" s:y="12.5" s:pid="Y"/></g><g s:type="and" transform="translate(167,332)" s:width="30" s:height="25" id="cell_$abc$135$auto$blifparse.cc:396:parse_blif$142"><s:alias val="$and"/><s:alias val="$logic_and"/><s:alias val="$_AND_"/><s:alias val="$reduce_and"/><path d="M0,0 L0,25 L15,25 A15 12.5 0 0 0 15,0 Z" class="cell_$abc$135$auto$blifparse.cc:396:parse_blif$142"/><g s:x="0" s:y="5" s:pid="A"/><g s:x="0" s:y="20" s:pid="B"/><g s:x="30" s:y="12.5" s:pid="Y"/></g><g s:type="andnot" transform="translate(265,339.5)" s:width="30" s:height="25" id="cell_$abc$135$auto$blifparse.cc:396:parse_blif$143"><s:alias val="$_ANDNOT_"/><path d="M0,0 L0,25 L15,25 A15 12.5 0 0 0 15,0 Z" class="cell_$abc$135$auto$blifparse.cc:396:parse_blif$143"/><circle cx="-3" cy="20" r="3"/><g s:x="0" s:y="5" s:pid="A"/><g s:x="-6" s:y="20" s:pid="B"/><g s:x="30" s:y="12.5" s:pid="Y"/></g><g s:type="and" transform="translate(263,399.5)" s:width="30" s:height="25" id="cell_$abc$135$auto$blifparse.cc:396:parse_blif$144"><s:alias val="$and"/><s:alias val="$logic_and"/><s:alias val="$_AND_"/><s:alias val="$reduce_and"/><path d="M0,0 L0,25 L15,25 A15 12.5 0 0 0 15,0 Z" class="cell_$abc$135$auto$blifparse.cc:396:parse_blif$144"/><g s:x="0" s:y="5" s:pid="A"/><g s:x="0" s:y="20" s:pid="B"/><g s:x="30" s:y="12.5" s:pid="Y"/></g><g s:type="and" transform="translate(263,159.5)" s:width="30" s:height="25" id="cell_$abc$135$auto$blifparse.cc:396:parse_blif$145"><s:alias val="$and"/><s:alias val="$logic_and"/><s:alias val="$_AND_"/><s:alias val="$reduce_and"/><path d="M0,0 L0,25 L15,25 A15 12.5 0 0 0 15,0 Z" class="cell_$abc$135$auto$blifparse.cc:396:parse_blif$145"/><g s:x="0" s:y="5" s:pid="A"/><g s:x="0" s:y="20" s:pid="B"/><g s:x="30" s:y="12.5" s:pid="Y"/></g><g s:type="and" transform="translate(263,219.5)" s:width="30" s:height="25" id="cell_$abc$135$auto$blifparse.cc:396:parse_blif$146"><s:alias val="$and"/><s:alias val="$logic_and"/><s:alias val="$_AND_"/><s:alias val="$reduce_and"/><path d="M0,0 L0,25 L15,25 A15 12.5 0 0 0 15,0 Z" class="cell_$abc$135$auto$blifparse.cc:396:parse_blif$146"/><g s:x="0" s:y="5" s:pid="A"/><g s:x="0" s:y="20" s:pid="B"/><g s:x="30" s:y="12.5" s:pid="Y"/></g><g s:type="and" transform="translate(263,459.5)" s:width="30" s:height="25" id="cell_$abc$135$auto$blifparse.cc:396:parse_blif$147"><s:alias val="$and"/><s:alias val="$logic_and"/><s:alias val="$_AND_"/><s:alias val="$reduce_and"/><path d="M0,0 L0,25 L15,25 A15 12.5 0 0 0 15,0 Z" class="cell_$abc$135$auto$blifparse.cc:396:parse_blif$147"/><g s:x="0" s:y="5" s:pid="A"/><g s:x="0" s:y="20" s:pid="B"/><g s:x="30" s:y="12.5" s:pid="Y"/></g><g s:type="inputExt" transform="translate(12,332)" s:width="30" s:height="20" id="cell_a"><text x="15" y="-4" class="nodelabel cell_a" s:attribute="ref">a</text><s:alias val="$_inputExt_"/><path d="M0,0 L0,20 L15,20 L30,10 L15,0 Z" class="cell_a"/><g s:x="30" s:y="10" s:pid="Y"/></g><g s:type="outputExt" transform="translate(427,72)" s:width="30" s:height="20" id="cell_y"><text x="15" y="-4" class="nodelabel cell_y" s:attribute="ref">y</text><s:alias val="$_outputExt_"/><path d="M30,0 L30,20 L15,20 L0,10 L15,0 Z" class="cell_y"/><g s:x="0" s:y="10" s:pid="A"/></g><g s:type="join" transform="translate(345,61.5)" s:width="4" s:height="40" id="cell_$join$,5,6,7,8,9,10,11,12,"><rect width="5" height="160" class="splitjoinBody" s:generic="body"/><s:alias val="$_join_"/><g s:x="5" s:y="20" s:pid="out"/><g transform="translate(0,10)" s:x="0" s:y="10" s:pid="in0"><text x="-3" y="-4" class="inputPortLabel">0</text></g><g transform="translate(0,30)" s:x="0" s:y="10" s:pid="in0"><text x="-3" y="-4" class="inputPortLabel">1</text></g><g transform="translate(0,50)" s:x="0" s:y="10" s:pid="in0"><text x="-3" y="-4" class="inputPortLabel">2</text></g><g transform="translate(0,70)" s:x="0" s:y="10" s:pid="in0"><text x="-3" y="-4" class="inputPortLabel">3</text></g><g transform="translate(0,90)" s:x="0" s:y="10" s:pid="in0"><text x="-3" y="-4" class="inputPortLabel">4</text></g><g transform="translate(0,110)" s:x="0" s:y="10" s:pid="in0"><text x="-3" y="-4" class="inputPortLabel">5</text></g><g transform="translate(0,130)" s:x="0" s:y="10" s:pid="in0"><text x="-3" y="-4" class="inputPortLabel">6</text></g><g transform="translate(0,150)" s:x="0" s:y="10" s:pid="in0"><text x="-3" y="-4" class="inputPortLabel">7</text></g></g><g s:type="split" transform="translate(116,321.5)" s:width="5" s:height="40" id="cell_$split$,2,3,4,"><rect width="5" height="60" class="splitjoinBody" s:generic="body"/><s:alias val="$_split_"/><g s:x="0" s:y="20" s:pid="in"/><g transform="translate(4,10)" s:x="4" s:y="10" s:pid="out0"><text x="5" y="-4">0</text></g><g transform="translate(4,30)" s:x="4" s:y="10" s:pid="out0"><text x="5" y="-4">1</text></g><g transform="translate(4,50)" s:x="4" s:y="10" s:pid="out0"><text x="5" y="-4">2</text></g></g><line x1="121" x2="138" y1="332" y2="332" class="net_2 width_1" style="stroke-width: 1"/><line x1="138" x2="138" y1="332" y2="17" class="net_2 width_1" style="stroke-width: 1"/><circle cx="138" cy="332" r="2" style="fill:#000" class="net_2 width_1"/><line x1="138" x2="165" y1="17" y2="17" class="net_2 width_1" style="stroke-width: 1"/><line x1="121" x2="138" y1="332" y2="332" class="net_2 width_1" style="stroke-width: 1"/><line x1="138" x2="138" y1="332" y2="77" class="net_2 width_1" style="stroke-width: 1"/><circle cx="138" cy="77" r="2" style="fill:#000" class="net_2 width_1"/><line x1="138" x2="169" y1="77" y2="77" class="net_2 width_1" style="stroke-width: 1"/><line x1="121" x2="138" y1="332" y2="332" class="net_2 width_1" style="stroke-width: 1"/><line x1="138" x2="138" y1="332" y2="247" class="net_2 width_1" style="stroke-width: 1"/><circle cx="138" cy="247" r="2" style="fill:#000" class="net_2 width_1"/><line x1="138" x2="163" y1="247" y2="247" class="net_2 width_1" style="stroke-width: 1"/><line x1="121" x2="138" y1="332" y2="332" class="net_2 width_1" style="stroke-width: 1"/><line x1="138" x2="138" y1="332" y2="337" class="net_2 width_1" style="stroke-width: 1"/><line x1="138" x2="167" y1="337" y2="337" class="net_2 width_1" style="stroke-width: 1"/><line x1="121" x2="148" y1="352" y2="352" class="net_3 width_1" style="stroke-width: 1"/><line x1="148" x2="148" y1="352" y2="32" class="net_3 width_1" style="stroke-width: 1"/><circle cx="148" cy="352" r="2" style="fill:#000" class="net_3 width_1"/><line x1="148" x2="165" y1="32" y2="32" class="net_3 width_1" style="stroke-width: 1"/><line x1="121" x2="148" y1="352" y2="352" class="net_3 width_1" style="stroke-width: 1"/><line x1="148" x2="148" y1="352" y2="92" class="net_3 width_1" style="stroke-width: 1"/><circle cx="148" cy="92" r="2" style="fill:#000" class="net_3 width_1"/><line x1="148" x2="163" y1="92" y2="92" class="net_3 width_1" style="stroke-width: 1"/><line x1="121" x2="148" y1="352" y2="352" class="net_3 width_1" style="stroke-width: 1"/><line x1="148" x2="148" y1="352" y2="232" class="net_3 width_1" style="stroke-width: 1"/><circle cx="148" cy="232" r="2" style="fill:#000" class="net_3 width_1"/><line x1="148" x2="169" y1="232" y2="232" class="net_3 width_1" style="stroke-width: 1"/><line x1="121" x2="167" y1="352" y2="352" class="net_3 width_1" style="stroke-width: 1"/><line x1="199" x2="265" y1="24.5" y2="24.5" class="net_13 width_1" style="stroke-width: 1"/><line x1="199" x2="219" y1="24.5" y2="24.5" class="net_13 width_1" style="stroke-width: 1"/><line x1="219" x2="219" y1="24.5" y2="419.5" class="net_13 width_1" style="stroke-width: 1"/><circle cx="219" cy="24.5" r="2" style="fill:#000" class="net_13 width_1"/><line x1="219" x2="263" y1="419.5" y2="419.5" class="net_13 width_1" style="stroke-width: 1"/><line x1="121" x2="138" y1="372" y2="372" class="net_4 width_1" style="stroke-width: 1"/><line x1="138" x2="138" y1="372" y2="367" class="net_4 width_1" style="stroke-width: 1"/><line x1="138" x2="239" y1="367" y2="367" class="net_4 width_1" style="stroke-width: 1"/><line x1="239" x2="239" y1="367" y2="39.5" class="net_4 width_1" style="stroke-width: 1"/><circle cx="239" cy="367" r="2" style="fill:#000" class="net_4 width_1"/><line x1="239" x2="259" y1="39.5" y2="39.5" class="net_4 width_1" style="stroke-width: 1"/><line x1="121" x2="138" y1="372" y2="372" class="net_4 width_1" style="stroke-width: 1"/><line x1="138" x2="138" y1="372" y2="367" class="net_4 width_1" style="stroke-width: 1"/><line x1="138" x2="239" y1="367" y2="367" class="net_4 width_1" style="stroke-width: 1"/><line x1="239" x2="239" y1="367" y2="99.5" class="net_4 width_1" style="stroke-width: 1"/><circle cx="239" cy="99.5" r="2" style="fill:#000" class="net_4 width_1"/><line x1="239" x2="259" y1="99.5" y2="99.5" class="net_4 width_1" style="stroke-width: 1"/><line x1="121" x2="138" y1="372" y2="372" class="net_4 width_1" style="stroke-width: 1"/><line x1="138" x2="138" y1="372" y2="367" class="net_4 width_1" style="stroke-width: 1"/><line x1="138" x2="239" y1="367" y2="367" class="net_4 width_1" style="stroke-width: 1"/><line x1="239" x2="239" y1="367" y2="299.5" class="net_4 width_1" style="stroke-width: 1"/><circle cx="239" cy="299.5" r="2" style="fill:#000" class="net_4 width_1"/><line x1="239" x2="259" y1="299.5" y2="299.5" class="net_4 width_1" style="stroke-width: 1"/><line x1="121" x2="138" y1="372" y2="372" class="net_4 width_1" style="stroke-width: 1"/><line x1="138" x2="138" y1="372" y2="367" class="net_4 width_1" style="stroke-width: 1"/><line x1="138" x2="239" y1="367" y2="367" class="net_4 width_1" style="stroke-width: 1"/><line x1="239" x2="239" y1="367" y2="359.5" class="net_4 width_1" style="stroke-width: 1"/><circle cx="239" cy="359.5" r="2" style="fill:#000" class="net_4 width_1"/><line x1="239" x2="259" y1="359.5" y2="359.5" class="net_4 width_1" style="stroke-width: 1"/><line x1="121" x2="138" y1="372" y2="372" class="net_4 width_1" style="stroke-width: 1"/><line x1="138" x2="138" y1="372" y2="367" class="net_4 width_1" style="stroke-width: 1"/><line x1="138" x2="239" y1="367" y2="367" class="net_4 width_1" style="stroke-width: 1"/><line x1="239" x2="239" y1="367" y2="404.5" class="net_4 width_1" style="stroke-width: 1"/><circle cx="239" cy="404.5" r="2" style="fill:#000" class="net_4 width_1"/><line x1="239" x2="263" y1="404.5" y2="404.5" class="net_4 width_1" style="stroke-width: 1"/><line x1="121" x2="138" y1="372" y2="372" class="net_4 width_1" style="stroke-width: 1"/><line x1="138" x2="138" y1="372" y2="367" class="net_4 width_1" style="stroke-width: 1"/><line x1="138" x2="239" y1="367" y2="367" class="net_4 width_1" style="stroke-width: 1"/><line x1="239" x2="239" y1="367" y2="164.5" class="net_4 width_1" style="stroke-width: 1"/><circle cx="239" cy="164.5" r="2" style="fill:#000" class="net_4 width_1"/><line x1="239" x2="263" y1="164.5" y2="164.5" class="net_4 width_1" style="stroke-width: 1"/><line x1="121" x2="138" y1="372" y2="372" class="net_4 width_1" style="stroke-width: 1"/><line x1="138" x2="138" y1="372" y2="367" class="net_4 width_1" style="stroke-width: 1"/><line x1="138" x2="239" y1="367" y2="367" class="net_4 width_1" style="stroke-width: 1"/><line x1="239" x2="239" y1="367" y2="224.5" class="net_4 width_1" style="stroke-width: 1"/><circle cx="239" cy="224.5" r="2" style="fill:#000" class="net_4 width_1"/><line x1="239" x2="263" y1="224.5" y2="224.5" class="net_4 width_1" style="stroke-width: 1"/><line x1="121" x2="138" y1="372" y2="372" class="net_4 width_1" style="stroke-width: 1"/><line x1="138" x2="138" y1="372" y2="367" class="net_4 width_1" style="stroke-width: 1"/><line x1="138" x2="239" y1="367" y2="367" class="net_4 width_1" style="stroke-width: 1"/><line x1="239" x2="239" y1="367" y2="464.5" class="net_4 width_1" style="stroke-width: 1"/><line x1="239" x2="263" y1="464.5" y2="464.5" class="net_4 width_1" style="stroke-width: 1"/><line x1="199" x2="265" y1="84.5" y2="84.5" class="net_14 width_1" style="stroke-width: 1"/><line x1="199" x2="229" y1="84.5" y2="84.5" class="net_14 width_1" style="stroke-width: 1"/><line x1="229" x2="229" y1="84.5" y2="179.5" class="net_14 width_1" style="stroke-width: 1"/><circle cx="229" cy="84.5" r="2" style="fill:#000" class="net_14 width_1"/><line x1="229" x2="263" y1="179.5" y2="179.5" class="net_14 width_1" style="stroke-width: 1"/><line x1="199" x2="249" y1="239.5" y2="239.5" class="net_15 width_1" style="stroke-width: 1"/><line x1="249" x2="249" y1="239.5" y2="284.5" class="net_15 width_1" style="stroke-width: 1"/><circle cx="249" cy="239.5" r="2" style="fill:#000" class="net_15 width_1"/><line x1="249" x2="265" y1="284.5" y2="284.5" class="net_15 width_1" style="stroke-width: 1"/><line x1="199" x2="263" y1="239.5" y2="239.5" class="net_15 width_1" style="stroke-width: 1"/><line x1="197" x2="265" y1="344.5" y2="344.5" class="net_16 width_1" style="stroke-width: 1"/><line x1="197" x2="209" y1="344.5" y2="344.5" class="net_16 width_1" style="stroke-width: 1"/><line x1="209" x2="209" y1="344.5" y2="479.5" class="net_16 width_1" style="stroke-width: 1"/><circle cx="209" cy="344.5" r="2" style="fill:#000" class="net_16 width_1"/><line x1="209" x2="263" y1="479.5" y2="479.5" class="net_16 width_1" style="stroke-width: 1"/><line x1="351" x2="427" y1="82" y2="82" class="net_5,6,7,8,9,10,11,12 width_8" style="stroke-width: 2"/><line x1="295" x2="345.5" y1="32" y2="32" class="net_5 width_1" style="stroke-width: 1"/><line x1="345.5" x2="345.5" y1="32" y2="71.5" class="net_5 width_1" style="stroke-width: 1"/><line x1="295" x2="345" y1="92" y2="92" class="net_6 width_1" style="stroke-width: 1"/><line x1="295" x2="305" y1="292" y2="292" class="net_7 width_1" style="stroke-width: 1"/><line x1="305" x2="305" y1="292" y2="112" class="net_7 width_1" style="stroke-width: 1"/><line x1="305" x2="345" y1="112" y2="112" class="net_7 width_1" style="stroke-width: 1"/><line x1="295" x2="315" y1="352" y2="352" class="net_8 width_1" style="stroke-width: 1"/><line x1="315" x2="315" y1="352" y2="132" class="net_8 width_1" style="stroke-width: 1"/><line x1="315" x2="345" y1="132" y2="132" class="net_8 width_1" style="stroke-width: 1"/><line x1="293" x2="325" y1="412" y2="412" class="net_9 width_1" style="stroke-width: 1"/><line x1="325" x2="325" y1="412" y2="152" class="net_9 width_1" style="stroke-width: 1"/><line x1="325" x2="345" y1="152" y2="152" class="net_9 width_1" style="stroke-width: 1"/><line x1="293" x2="345" y1="172" y2="172" class="net_10 width_1" style="stroke-width: 1"/><line x1="293" x2="335" y1="232" y2="232" class="net_11 width_1" style="stroke-width: 1"/><line x1="335" x2="335" y1="232" y2="192" class="net_11 width_1" style="stroke-width: 1"/><line x1="335" x2="345" y1="192" y2="192" class="net_11 width_1" style="stroke-width: 1"/><line x1="293" x2="345.5" y1="472" y2="472" class="net_12 width_1" style="stroke-width: 1"/><line x1="345.5" x2="345.5" y1="472" y2="212.5" class="net_12 width_1" style="stroke-width: 1"/><line x1="42" x2="116" y1="342" y2="342" class="net_2,3,4 width_3" style="stroke-width: 2"/><rect x="389" y="77" width="16" height="9" class="net_5,6,7,8,9,10,11,12 width_8 busLabel_8" style="fill: white; stroke: none"/><text x="388" y="85" class="net_5,6,7,8,9,10,11,12 width_8 busLabel_8">/8/</text><rect x="78" y="337" width="16" height="9" class="net_2,3,4 width_3 busLabel_3" style="fill: white; stroke: none"/><text x="77" y="345" class="net_2,3,4 width_3 busLabel_3">/3/</text></svg>