<svg xmlns="http://www.w3.org/2000/svg" xmlns:xlink="http://www.w3.org/1999/xlink" xmlns:s="https://github.com/nturley/netlistsvg" width="420" height="363.5"><style>svg {
  stroke:#000;
  fill:none;
}
text {
  fill:#000;
  stroke:none;
  font-size:10px;
  font-weight: bold;
  font-family: "Courier New", monospace;
}
line {
    stroke-linecap: round;
}
.nodelabel {
  text-anchor: middle;
}
.inputPortLabel {
  text-anchor: end;
}
.splitjoinBody {
  fill:#000;
}</style><g s:type="mux" transform="translate(236,12)" s:width="20" s:height="40" id="cell_$auto$muxcover.cc:516:implement_best_cover$88"><s:alias val="$pmux"/><s:alias val="$mux"/><s:alias val="$_MUX_"/><path d="M0,0 L20,10 L20,30 L0,40 Z" class="cell_$auto$muxcover.cc:516:implement_best_cover$88"/><text x="5" y="32" class="nodelabel cell_$auto$muxcover.cc:516:implement_best_cover$88" s:attribute="">1</text><text x="5" y="13" class="nodelabel cell_$auto$muxcover.cc:516:implement_best_cover$88" s:attribute="">0</text><g s:x="0" s:y="10" s:pid="A"/><g s:x="0" s:y="30" s:pid="B"/><g s:x="10" s:y="35" s:pid="S"/><g s:x="20" s:y="20" s:pid="Y"/></g><g s:type="mux" transform="translate(236,72)" s:width="20" s:height="40" id="cell_$auto$muxcover.cc:516:implement_best_cover$89"><s:alias val="$pmux"/><s:alias val="$mux"/><s:alias val="$_MUX_"/><path d="M0,0 L20,10 L20,30 L0,40 Z" class="cell_$auto$muxcover.cc:516:implement_best_cover$89"/><text x="5" y="32" class="nodelabel cell_$auto$muxcover.cc:516:implement_best_cover$89" s:attribute="">1</text><text x="5" y="13" class="nodelabel cell_$auto$muxcover.cc:516:implement_best_cover$89" s:attribute="">0</text><g s:x="0" s:y="10" s:pid="A"/><g s:x="0" s:y="30" s:pid="B"/><g s:x="10" s:y="35" s:pid="S"/><g s:x="20" s:y="20" s:pid="Y"/></g><g s:type="mux" transform="translate(236,132)" s:width="20" s:height="40" id="cell_$auto$muxcover.cc:516:implement_best_cover$90"><s:alias val="$pmux"/><s:alias val="$mux"/><s:alias val="$_MUX_"/><path d="M0,0 L20,10 L20,30 L0,40 Z" class="cell_$auto$muxcover.cc:516:implement_best_cover$90"/><text x="5" y="32" class="nodelabel cell_$auto$muxcover.cc:516:implement_best_cover$90" s:attribute="">1</text><text x="5" y="13" class="nodelabel cell_$auto$muxcover.cc:516:implement_best_cover$90" s:attribute="">0</text><g s:x="0" s:y="10" s:pid="A"/><g s:x="0" s:y="30" s:pid="B"/><g s:x="10" s:y="35" s:pid="S"/><g s:x="20" s:y="20" s:pid="Y"/></g><g s:type="mux" transform="translate(236,247)" s:width="20" s:height="40" id="cell_$auto$muxcover.cc:516:implement_best_cover$91"><s:alias val="$pmux"/><s:alias val="$mux"/><s:alias val="$_MUX_"/><path d="M0,0 L20,10 L20,30 L0,40 Z" class="cell_$auto$muxcover.cc:516:implement_best_cover$91"/><text x="5" y="32" class="nodelabel cell_$auto$muxcover.cc:516:implement_best_cover$91" s:attribute="">1</text><text x="5" y="13" class="nodelabel cell_$auto$muxcover.cc:516:implement_best_cover$91" s:attribute="">0</text><g s:x="0" s:y="10" s:pid="A"/><g s:x="0" s:y="30" s:pid="B"/><g s:x="10" s:y="35" s:pid="S"/><g s:x="20" s:y="20" s:pid="Y"/></g><g s:type="inputExt" transform="translate(12,102)" s:width="30" s:height="20" id="cell_d0"><text x="15" y="-4" class="nodelabel cell_d0" s:attribute="ref">d0</text><s:alias val="$_inputExt_"/><path d="M0,0 L0,20 L15,20 L30,10 L15,0 Z" class="cell_d0"/><g s:x="30" s:y="10" s:pid="Y"/></g><g s:type="inputExt" transform="translate(12,217)" s:width="30" s:height="20" id="cell_d1"><text x="15" y="-4" class="nodelabel cell_d1" s:attribute="ref">d1</text><s:alias val="$_inputExt_"/><path d="M0,0 L0,20 L15,20 L30,10 L15,0 Z" class="cell_d1"/><g s:x="30" s:y="10" s:pid="Y"/></g><g s:type="inputExt" transform="translate(116,331.5)" s:width="30" s:height="20" id="cell_s"><text x="15" y="-4" class="nodelabel cell_s" s:attribute="ref">s</text><s:alias val="$_inputExt_"/><path d="M0,0 L0,20 L15,20 L30,10 L15,0 Z" class="cell_s"/><g s:x="30" s:y="10" s:pid="Y"/></g><g s:type="outputExt" transform="translate(378,72)" s:width="30" s:height="20" id="cell_y"><text x="15" y="-4" class="nodelabel cell_y" s:attribute="ref">y</text><s:alias val="$_outputExt_"/><path d="M30,0 L30,20 L15,20 L0,10 L15,0 Z" class="cell_y"/><g s:x="0" s:y="10" s:pid="A"/></g><g s:type="join" transform="translate(298,61.5)" s:width="4" s:height="40" id="cell_$join$,11,12,13,14,"><rect width="5" height="80" class="splitjoinBody" s:generic="body"/><s:alias val="$_join_"/><g s:x="5" s:y="20" s:pid="out"/><g transform="translate(0,10)" s:x="0" s:y="10" s:pid="in0"><text x="-3" y="-4" class="inputPortLabel">0</text></g><g transform="translate(0,30)" s:x="0" s:y="10" s:pid="in0"><text x="-3" y="-4" class="inputPortLabel">1</text></g><g transform="translate(0,50)" s:x="0" s:y="10" s:pid="in0"><text x="-3" y="-4" class="inputPortLabel">2</text></g><g transform="translate(0,70)" s:x="0" s:y="10" s:pid="in0"><text x="-3" y="-4" class="inputPortLabel">3</text></g></g><g s:type="split" transform="translate(131.8,91.5)" s:width="5" s:height="40" id="cell_$split$,2,3,4,5,"><rect width="5" height="80" class="splitjoinBody" s:generic="body"/><s:alias val="$_split_"/><g s:x="0" s:y="20" s:pid="in"/><g transform="translate(4,10)" s:x="4" s:y="10" s:pid="out0"><text x="5" y="-4">0</text></g><g transform="translate(4,30)" s:x="4" s:y="10" s:pid="out0"><text x="5" y="-4">1</text></g><g transform="translate(4,50)" s:x="4" s:y="10" s:pid="out0"><text x="5" y="-4">2</text></g><g transform="translate(4,70)" s:x="4" s:y="10" s:pid="out0"><text x="5" y="-4">3</text></g></g><g s:type="split" transform="translate(131.8,206.5)" s:width="5" s:height="40" id="cell_$split$,6,7,8,9,"><rect width="5" height="80" class="splitjoinBody" s:generic="body"/><s:alias val="$_split_"/><g s:x="0" s:y="20" s:pid="in"/><g transform="translate(4,10)" s:x="4" s:y="10" s:pid="out0"><text x="5" y="-4">0</text></g><g transform="translate(4,30)" s:x="4" s:y="10" s:pid="out0"><text x="5" y="-4">1</text></g><g transform="translate(4,50)" s:x="4" s:y="10" s:pid="out0"><text x="5" y="-4">2</text></g><g transform="translate(4,70)" s:x="4" s:y="10" s:pid="out0"><text x="5" y="-4">3</text></g></g><line x1="136.8" x2="156" y1="102" y2="102" class="net_2 width_1" style="stroke-width: 1"/><line x1="156" x2="156" y1="102" y2="22" class="net_2 width_1" style="stroke-width: 1"/><line x1="156" x2="236" y1="22" y2="22" class="net_2 width_1" style="stroke-width: 1"/><line x1="136.8" x2="166" y1="217" y2="217" class="net_6 width_1" style="stroke-width: 1"/><line x1="166" x2="166" y1="217" y2="42" class="net_6 width_1" style="stroke-width: 1"/><line x1="166" x2="236" y1="42" y2="42" class="net_6 width_1" style="stroke-width: 1"/><line x1="146" x2="226" y1="341.5" y2="341.5" class="net_10 width_1" style="stroke-width: 1"/><line x1="226" x2="226" y1="341.5" y2="62" class="net_10 width_1" style="stroke-width: 1"/><line x1="226" x2="246" y1="62" y2="62" class="net_10 width_1" style="stroke-width: 1"/><circle cx="226" cy="341.5" r="2" style="fill:#000" class="net_10 width_1"/><line x1="246" x2="246" y1="62" y2="47" class="net_10 width_1" style="stroke-width: 1"/><line x1="146" x2="226" y1="341.5" y2="341.5" class="net_10 width_1" style="stroke-width: 1"/><line x1="226" x2="226" y1="341.5" y2="122" class="net_10 width_1" style="stroke-width: 1"/><line x1="226" x2="246" y1="122" y2="122" class="net_10 width_1" style="stroke-width: 1"/><circle cx="226" cy="122" r="2" style="fill:#000" class="net_10 width_1"/><line x1="246" x2="246" y1="122" y2="107" class="net_10 width_1" style="stroke-width: 1"/><line x1="146" x2="226" y1="341.5" y2="341.5" class="net_10 width_1" style="stroke-width: 1"/><line x1="226" x2="226" y1="341.5" y2="237" class="net_10 width_1" style="stroke-width: 1"/><line x1="226" x2="246" y1="237" y2="237" class="net_10 width_1" style="stroke-width: 1"/><circle cx="226" cy="237" r="2" style="fill:#000" class="net_10 width_1"/><line x1="246" x2="246" y1="237" y2="167" class="net_10 width_1" style="stroke-width: 1"/><line x1="146" x2="246" y1="341.5" y2="341.5" class="net_10 width_1" style="stroke-width: 1"/><line x1="246" x2="246" y1="341.5" y2="282" class="net_10 width_1" style="stroke-width: 1"/><line x1="136.8" x2="176" y1="122" y2="122" class="net_3 width_1" style="stroke-width: 1"/><line x1="176" x2="176" y1="122" y2="82" class="net_3 width_1" style="stroke-width: 1"/><line x1="176" x2="236" y1="82" y2="82" class="net_3 width_1" style="stroke-width: 1"/><line x1="136.8" x2="186" y1="237" y2="237" class="net_7 width_1" style="stroke-width: 1"/><line x1="186" x2="186" y1="237" y2="102" class="net_7 width_1" style="stroke-width: 1"/><line x1="186" x2="236" y1="102" y2="102" class="net_7 width_1" style="stroke-width: 1"/><line x1="136.8" x2="236" y1="142" y2="142" class="net_4 width_1" style="stroke-width: 1"/><line x1="136.8" x2="196" y1="257" y2="257" class="net_8 width_1" style="stroke-width: 1"/><line x1="196" x2="196" y1="257" y2="189.5" class="net_8 width_1" style="stroke-width: 1"/><line x1="196" x2="216" y1="189.5" y2="189.5" class="net_8 width_1" style="stroke-width: 1"/><line x1="216" x2="216" y1="189.5" y2="162" class="net_8 width_1" style="stroke-width: 1"/><line x1="216" x2="236" y1="162" y2="162" class="net_8 width_1" style="stroke-width: 1"/><line x1="136.8" x2="206" y1="162" y2="162" class="net_5 width_1" style="stroke-width: 1"/><line x1="206" x2="206" y1="162" y2="257" class="net_5 width_1" style="stroke-width: 1"/><line x1="206" x2="236" y1="257" y2="257" class="net_5 width_1" style="stroke-width: 1"/><line x1="136.8" x2="236" y1="277" y2="277" class="net_9 width_1" style="stroke-width: 1"/><line x1="304" x2="378" y1="82" y2="82" class="net_11,12,13,14 width_4" style="stroke-width: 2"/><line x1="256" x2="266" y1="32" y2="32" class="net_11 width_1" style="stroke-width: 1"/><line x1="266" x2="266" y1="32" y2="72" class="net_11 width_1" style="stroke-width: 1"/><line x1="266" x2="298" y1="72" y2="72" class="net_11 width_1" style="stroke-width: 1"/><line x1="256" x2="298" y1="92" y2="92" class="net_12 width_1" style="stroke-width: 1"/><line x1="256" x2="266" y1="152" y2="152" class="net_13 width_1" style="stroke-width: 1"/><line x1="266" x2="266" y1="152" y2="112" class="net_13 width_1" style="stroke-width: 1"/><line x1="266" x2="298" y1="112" y2="112" class="net_13 width_1" style="stroke-width: 1"/><line x1="256" x2="298.5" y1="267" y2="267" class="net_14 width_1" style="stroke-width: 1"/><line x1="298.5" x2="298.5" y1="267" y2="132.5" class="net_14 width_1" style="stroke-width: 1"/><line x1="42" x2="131.8" y1="112" y2="112" class="net_2,3,4,5 width_4" style="stroke-width: 2"/><line x1="42" x2="131.8" y1="227" y2="227" class="net_6,7,8,9 width_4" style="stroke-width: 2"/><rect x="340" y="77" width="16" height="9" class="net_11,12,13,14 width_4 busLabel_4" style="fill: white; stroke: none"/><text x="339" y="85" class="net_11,12,13,14 width_4 busLabel_4">/4/</text><rect x="78" y="107" width="16" height="9" class="net_2,3,4,5 width_4 busLabel_4" style="fill: white; stroke: none"/><text x="77" y="115" class="net_2,3,4,5 width_4 busLabel_4">/4/</text><rect x="78" y="222" width="16" height="9" class="net_6,7,8,9 width_4 busLabel_4" style="fill: white; stroke: none"/><text x="77" y="230" class="net_6,7,8,9 width_4 busLabel_4">/4/</text></svg>