<svg xmlns="http://www.w3.org/2000/svg" xmlns:xlink="http://www.w3.org/1999/xlink" xmlns:s="https://github.com/nturley/netlistsvg" width="294" height="180"><style>svg {
  stroke:#000;
  fill:none;
}
text {
  fill:#000;
  stroke:none;
  font-size:10px;
  font-weight: bold;
  font-family: "Courier New", monospace;
}
line {
    stroke-linecap: round;
}
.nodelabel {
  text-anchor: middle;
}
.inputPortLabel {
  text-anchor: end;
}
.splitjoinBody {
  fill:#000;
}</style><g s:type="dff-bus" transform="translate(143,22)" s:width="34" s:height="44" id="cell_$auto$ff.cc:266:slice$6"><s:alias val="$dff-bus"/><s:alias val="$_DFF_-bus"/><s:alias val="$_DFF_P_-bus"/><s:alias val="adff-bus"/><s:alias val="$adff-bus"/><s:alias val="$_DFF_-bus"/><s:alias val="$_DFF_P_-bus"/><s:alias val="sdff-bus"/><s:alias val="$sdff-bus"/><s:alias val="$_DFF_-bus"/><s:alias val="$_DFF_P_-bus"/><rect width="30" height="40" x="0" y="0" class="cell_$auto$ff.cc:266:slice$6"/><path d="M0,35 L5,30 L0,25" class="cell_$auto$ff.cc:266:slice$6"/><path d="M30,2 L32,2 L32,42 L2,42 L2,40" class="cell_$auto$ff.cc:266:slice$6"/><path d="M32,4 L34,4 L34,44 L4,44 L4,42" class="cell_$auto$ff.cc:266:slice$6"/><g s:x="35" s:y="10" s:pid="Q"/><g s:x="-1" s:y="30" s:pid="CLK"/><g s:x="-1" s:y="30" s:pid="C"/><g s:x="-1" s:y="10" s:pid="D"/><g s:x="17" s:y="44" s:pid="ARST"/><g s:x="17" s:y="44" s:pid="SRST"/></g><g s:type="inputExt" transform="translate(77,83)" s:width="30" s:height="20" id="cell_clk"><text x="15" y="-4" class="nodelabel cell_clk" s:attribute="ref">clk</text><s:alias val="$_inputExt_"/><path d="M0,0 L0,20 L15,20 L30,10 L15,0 Z" class="cell_clk"/><g s:x="30" s:y="10" s:pid="Y"/></g><g s:type="inputExt" transform="translate(77,148)" s:width="30" s:height="20" id="cell_reset"><text x="15" y="-4" class="nodelabel cell_reset" s:attribute="ref">reset</text><s:alias val="$_inputExt_"/><path d="M0,0 L0,20 L15,20 L30,10 L15,0 Z" class="cell_reset"/><g s:x="30" s:y="10" s:pid="Y"/></g><g s:type="inputExt" transform="translate(12,22)" s:width="30" s:height="20" id="cell_d"><text x="15" y="-4" class="nodelabel cell_d" s:attribute="ref">d</text><s:alias val="$_inputExt_"/><path d="M0,0 L0,20 L15,20 L30,10 L15,0 Z" class="cell_d"/><g s:x="30" s:y="10" s:pid="Y"/></g><g s:type="outputExt" transform="translate(252,22)" s:width="30" s:height="20" id="cell_q"><text x="15" y="-4" class="nodelabel cell_q" s:attribute="ref">q</text><s:alias val="$_outputExt_"/><path d="M30,0 L30,20 L15,20 L0,10 L15,0 Z" class="cell_q"/><g s:x="0" s:y="10" s:pid="A"/></g><line x1="107" x2="117" y1="93" y2="93" class="net_2 width_1" style="stroke-width: 1"/><line x1="117" x2="117" y1="93" y2="52" class="net_2 width_1" style="stroke-width: 1"/><line x1="117" x2="142" y1="52" y2="52" class="net_2 width_1" style="stroke-width: 1"/><line x1="42" x2="142" y1="32" y2="32" class="net_4,5,6,7 width_4" style="stroke-width: 2"/><line x1="107" x2="160" y1="158" y2="158" class="net_3 width_1" style="stroke-width: 1"/><line x1="160" x2="160" y1="158" y2="66" class="net_3 width_1" style="stroke-width: 1"/><line x1="178" x2="252" y1="32" y2="32" class="net_8,9,10,11 width_4" style="stroke-width: 2"/><rect x="91" y="27" width="16" height="9" class="net_4,5,6,7 width_4 busLabel_4" style="fill: white; stroke: none"/><text x="90" y="35" class="net_4,5,6,7 width_4 busLabel_4">/4/</text><rect x="214" y="27" width="16" height="9" class="net_8,9,10,11 width_4 busLabel_4" style="fill: white; stroke: none"/><text x="213" y="35" class="net_8,9,10,11 width_4 busLabel_4">/4/</text></svg>