<svg xmlns="http://www.w3.org/2000/svg" xmlns:xlink="http://www.w3.org/1999/xlink" xmlns:s="https://github.com/nturley/netlistsvg" width="725" height="905.5"><style>svg {
  stroke:#000;
  fill:none;
}
text {
  fill:#000;
  stroke:none;
  font-size:10px;
  font-weight: bold;
  font-family: "Courier New", monospace;
}
line {
    stroke-linecap: round;
}
.nodelabel {
  text-anchor: middle;
}
.inputPortLabel {
  text-anchor: end;
}
.splitjoinBody {
  fill:#000;
}</style><g s:type="generic" transform="translate(285,266.5)" s:width="30" s:height="40" id="cell_$auto$muxcover.cc:526:implement_best_cover$106"><text x="15" y="-4" class="nodelabel cell_$auto$muxcover.cc:526:implement_best_cover$106" s:attribute="ref">$_MUX4_</text><rect width="30" height="120" s:generic="body" class="cell_$auto$muxcover.cc:526:implement_best_cover$106"/><g transform="translate(0,10)" s:x="0" s:y="10" s:pid="in0" id="port_$auto$muxcover.cc:526:implement_best_cover$106~A"><text x="-3" y="-4" class="inputPortLabel cell_$auto$muxcover.cc:526:implement_best_cover$106">A</text></g><g transform="translate(0,30)" s:x="0" s:y="10" s:pid="in0" id="port_$auto$muxcover.cc:526:implement_best_cover$106~B"><text x="-3" y="-4" class="inputPortLabel cell_$auto$muxcover.cc:526:implement_best_cover$106">B</text></g><g transform="translate(0,50)" s:x="0" s:y="10" s:pid="in0" id="port_$auto$muxcover.cc:526:implement_best_cover$106~C"><text x="-3" y="-4" class="inputPortLabel cell_$auto$muxcover.cc:526:implement_best_cover$106">C</text></g><g transform="translate(0,70)" s:x="0" s:y="10" s:pid="in0" id="port_$auto$muxcover.cc:526:implement_best_cover$106~D"><text x="-3" y="-4" class="inputPortLabel cell_$auto$muxcover.cc:526:implement_best_cover$106">D</text></g><g transform="translate(0,90)" s:x="0" s:y="10" s:pid="in0" id="port_$auto$muxcover.cc:526:implement_best_cover$106~S"><text x="-3" y="-4" class="inputPortLabel cell_$auto$muxcover.cc:526:implement_best_cover$106">S</text></g><g transform="translate(0,110)" s:x="0" s:y="10" s:pid="in0" id="port_$auto$muxcover.cc:526:implement_best_cover$106~T"><text x="-3" y="-4" class="inputPortLabel cell_$auto$muxcover.cc:526:implement_best_cover$106">T</text></g><g transform="translate(30,10)" s:x="30" s:y="10" s:pid="out0" id="port_$auto$muxcover.cc:526:implement_best_cover$106~Y"><text x="5" y="-4" style="fill:#000; stroke:none" class="cell_$auto$muxcover.cc:526:implement_best_cover$106">Y</text></g></g><g s:type="generic" transform="translate(285,434.5)" s:width="30" s:height="40" id="cell_$auto$muxcover.cc:526:implement_best_cover$107"><text x="15" y="-4" class="nodelabel cell_$auto$muxcover.cc:526:implement_best_cover$107" s:attribute="ref">$_MUX4_</text><rect width="30" height="120" s:generic="body" class="cell_$auto$muxcover.cc:526:implement_best_cover$107"/><g transform="translate(0,10)" s:x="0" s:y="10" s:pid="in0" id="port_$auto$muxcover.cc:526:implement_best_cover$107~A"><text x="-3" y="-4" class="inputPortLabel cell_$auto$muxcover.cc:526:implement_best_cover$107">A</text></g><g transform="translate(0,30)" s:x="0" s:y="10" s:pid="in0" id="port_$auto$muxcover.cc:526:implement_best_cover$107~B"><text x="-3" y="-4" class="inputPortLabel cell_$auto$muxcover.cc:526:implement_best_cover$107">B</text></g><g transform="translate(0,50)" s:x="0" s:y="10" s:pid="in0" id="port_$auto$muxcover.cc:526:implement_best_cover$107~C"><text x="-3" y="-4" class="inputPortLabel cell_$auto$muxcover.cc:526:implement_best_cover$107">C</text></g><g transform="translate(0,70)" s:x="0" s:y="10" s:pid="in0" id="port_$auto$muxcover.cc:526:implement_best_cover$107~D"><text x="-3" y="-4" class="inputPortLabel cell_$auto$muxcover.cc:526:implement_best_cover$107">D</text></g><g transform="translate(0,90)" s:x="0" s:y="10" s:pid="in0" id="port_$auto$muxcover.cc:526:implement_best_cover$107~S"><text x="-3" y="-4" class="inputPortLabel cell_$auto$muxcover.cc:526:implement_best_cover$107">S</text></g><g transform="translate(0,110)" s:x="0" s:y="10" s:pid="in0" id="port_$auto$muxcover.cc:526:implement_best_cover$107~T"><text x="-3" y="-4" class="inputPortLabel cell_$auto$muxcover.cc:526:implement_best_cover$107">T</text></g><g transform="translate(30,10)" s:x="30" s:y="10" s:pid="out0" id="port_$auto$muxcover.cc:526:implement_best_cover$107~Y"><text x="5" y="-4" style="fill:#000; stroke:none" class="cell_$auto$muxcover.cc:526:implement_best_cover$107">Y</text></g></g><g s:type="generic" transform="translate(285,602.5)" s:width="30" s:height="40" id="cell_$auto$muxcover.cc:526:implement_best_cover$108"><text x="15" y="-4" class="nodelabel cell_$auto$muxcover.cc:526:implement_best_cover$108" s:attribute="ref">$_MUX4_</text><rect width="30" height="120" s:generic="body" class="cell_$auto$muxcover.cc:526:implement_best_cover$108"/><g transform="translate(0,10)" s:x="0" s:y="10" s:pid="in0" id="port_$auto$muxcover.cc:526:implement_best_cover$108~A"><text x="-3" y="-4" class="inputPortLabel cell_$auto$muxcover.cc:526:implement_best_cover$108">A</text></g><g transform="translate(0,30)" s:x="0" s:y="10" s:pid="in0" id="port_$auto$muxcover.cc:526:implement_best_cover$108~B"><text x="-3" y="-4" class="inputPortLabel cell_$auto$muxcover.cc:526:implement_best_cover$108">B</text></g><g transform="translate(0,50)" s:x="0" s:y="10" s:pid="in0" id="port_$auto$muxcover.cc:526:implement_best_cover$108~C"><text x="-3" y="-4" class="inputPortLabel cell_$auto$muxcover.cc:526:implement_best_cover$108">C</text></g><g transform="translate(0,70)" s:x="0" s:y="10" s:pid="in0" id="port_$auto$muxcover.cc:526:implement_best_cover$108~D"><text x="-3" y="-4" class="inputPortLabel cell_$auto$muxcover.cc:526:implement_best_cover$108">D</text></g><g transform="translate(0,90)" s:x="0" s:y="10" s:pid="in0" id="port_$auto$muxcover.cc:526:implement_best_cover$108~S"><text x="-3" y="-4" class="inputPortLabel cell_$auto$muxcover.cc:526:implement_best_cover$108">S</text></g><g transform="translate(0,110)" s:x="0" s:y="10" s:pid="in0" id="port_$auto$muxcover.cc:526:implement_best_cover$108~T"><text x="-3" y="-4" class="inputPortLabel cell_$auto$muxcover.cc:526:implement_best_cover$108">T</text></g><g transform="translate(30,10)" s:x="30" s:y="10" s:pid="out0" id="port_$auto$muxcover.cc:526:implement_best_cover$108~Y"><text x="5" y="-4" style="fill:#000; stroke:none" class="cell_$auto$muxcover.cc:526:implement_best_cover$108">Y</text></g></g><g s:type="generic" transform="translate(285,770.5)" s:width="30" s:height="40" id="cell_$auto$muxcover.cc:526:implement_best_cover$109"><text x="15" y="-4" class="nodelabel cell_$auto$muxcover.cc:526:implement_best_cover$109" s:attribute="ref">$_MUX4_</text><rect width="30" height="120" s:generic="body" class="cell_$auto$muxcover.cc:526:implement_best_cover$109"/><g transform="translate(0,10)" s:x="0" s:y="10" s:pid="in0" id="port_$auto$muxcover.cc:526:implement_best_cover$109~A"><text x="-3" y="-4" class="inputPortLabel cell_$auto$muxcover.cc:526:implement_best_cover$109">A</text></g><g transform="translate(0,30)" s:x="0" s:y="10" s:pid="in0" id="port_$auto$muxcover.cc:526:implement_best_cover$109~B"><text x="-3" y="-4" class="inputPortLabel cell_$auto$muxcover.cc:526:implement_best_cover$109">B</text></g><g transform="translate(0,50)" s:x="0" s:y="10" s:pid="in0" id="port_$auto$muxcover.cc:526:implement_best_cover$109~C"><text x="-3" y="-4" class="inputPortLabel cell_$auto$muxcover.cc:526:implement_best_cover$109">C</text></g><g transform="translate(0,70)" s:x="0" s:y="10" s:pid="in0" id="port_$auto$muxcover.cc:526:implement_best_cover$109~D"><text x="-3" y="-4" class="inputPortLabel cell_$auto$muxcover.cc:526:implement_best_cover$109">D</text></g><g transform="translate(0,90)" s:x="0" s:y="10" s:pid="in0" id="port_$auto$muxcover.cc:526:implement_best_cover$109~S"><text x="-3" y="-4" class="inputPortLabel cell_$auto$muxcover.cc:526:implement_best_cover$109">S</text></g><g transform="translate(0,110)" s:x="0" s:y="10" s:pid="in0" id="port_$auto$muxcover.cc:526:implement_best_cover$109~T"><text x="-3" y="-4" class="inputPortLabel cell_$auto$muxcover.cc:526:implement_best_cover$109">T</text></g><g transform="translate(30,10)" s:x="30" s:y="10" s:pid="out0" id="port_$auto$muxcover.cc:526:implement_best_cover$109~Y"><text x="5" y="-4" style="fill:#000; stroke:none" class="cell_$auto$muxcover.cc:526:implement_best_cover$109">Y</text></g></g><g s:type="inputExt" transform="translate(12,87)" s:width="30" s:height="20" id="cell_d0"><text x="15" y="-4" class="nodelabel cell_d0" s:attribute="ref">d0</text><s:alias val="$_inputExt_"/><path d="M0,0 L0,20 L15,20 L30,10 L15,0 Z" class="cell_d0"/><g s:x="30" s:y="10" s:pid="Y"/></g><g s:type="inputExt" transform="translate(12,202)" s:width="30" s:height="20" id="cell_d1"><text x="15" y="-4" class="nodelabel cell_d1" s:attribute="ref">d1</text><s:alias val="$_inputExt_"/><path d="M0,0 L0,20 L15,20 L30,10 L15,0 Z" class="cell_d1"/><g s:x="30" s:y="10" s:pid="Y"/></g><g s:type="inputExt" transform="translate(12,317)" s:width="30" s:height="20" id="cell_d2"><text x="15" y="-4" class="nodelabel cell_d2" s:attribute="ref">d2</text><s:alias val="$_inputExt_"/><path d="M0,0 L0,20 L15,20 L30,10 L15,0 Z" class="cell_d2"/><g s:x="30" s:y="10" s:pid="Y"/></g><g s:type="inputExt" transform="translate(12,485)" s:width="30" s:height="20" id="cell_d3"><text x="15" y="-4" class="nodelabel cell_d3" s:attribute="ref">d3</text><s:alias val="$_inputExt_"/><path d="M0,0 L0,20 L15,20 L30,10 L15,0 Z" class="cell_d3"/><g s:x="30" s:y="10" s:pid="Y"/></g><g s:type="inputExt" transform="translate(12,22)" s:width="30" s:height="20" id="cell_s"><text x="15" y="-4" class="nodelabel cell_s" s:attribute="ref">s</text><s:alias val="$_inputExt_"/><path d="M0,0 L0,20 L15,20 L30,10 L15,0 Z" class="cell_s"/><g s:x="30" s:y="10" s:pid="Y"/></g><g s:type="outputExt" transform="translate(683,425)" s:width="30" s:height="20" id="cell_y"><text x="15" y="-4" class="nodelabel cell_y" s:attribute="ref">y</text><s:alias val="$_outputExt_"/><path d="M30,0 L30,20 L15,20 L0,10 L15,0 Z" class="cell_y"/><g s:x="0" s:y="10" s:pid="A"/></g><g s:type="join" transform="translate(603,414.5)" s:width="4" s:height="40" id="cell_$join$,20,21,22,23,"><rect width="5" height="80" class="splitjoinBody" s:generic="body"/><s:alias val="$_join_"/><g s:x="5" s:y="20" s:pid="out"/><g transform="translate(0,10)" s:x="0" s:y="10" s:pid="in0"><text x="-3" y="-4" class="inputPortLabel">0</text></g><g transform="translate(0,30)" s:x="0" s:y="10" s:pid="in0"><text x="-3" y="-4" class="inputPortLabel">1</text></g><g transform="translate(0,50)" s:x="0" s:y="10" s:pid="in0"><text x="-3" y="-4" class="inputPortLabel">2</text></g><g transform="translate(0,70)" s:x="0" s:y="10" s:pid="in0"><text x="-3" y="-4" class="inputPortLabel">3</text></g></g><g s:type="split" transform="translate(116,76.5)" s:width="5" s:height="40" id="cell_$split$,2,3,4,5,"><rect width="5" height="80" class="splitjoinBody" s:generic="body"/><s:alias val="$_split_"/><g s:x="0" s:y="20" s:pid="in"/><g transform="translate(4,10)" s:x="4" s:y="10" s:pid="out0"><text x="5" y="-4">0</text></g><g transform="translate(4,30)" s:x="4" s:y="10" s:pid="out0"><text x="5" y="-4">1</text></g><g transform="translate(4,50)" s:x="4" s:y="10" s:pid="out0"><text x="5" y="-4">2</text></g><g transform="translate(4,70)" s:x="4" s:y="10" s:pid="out0"><text x="5" y="-4">3</text></g></g><g s:type="split" transform="translate(116,191.5)" s:width="5" s:height="40" id="cell_$split$,6,7,8,9,"><rect width="5" height="80" class="splitjoinBody" s:generic="body"/><s:alias val="$_split_"/><g s:x="0" s:y="20" s:pid="in"/><g transform="translate(4,10)" s:x="4" s:y="10" s:pid="out0"><text x="5" y="-4">0</text></g><g transform="translate(4,30)" s:x="4" s:y="10" s:pid="out0"><text x="5" y="-4">1</text></g><g transform="translate(4,50)" s:x="4" s:y="10" s:pid="out0"><text x="5" y="-4">2</text></g><g transform="translate(4,70)" s:x="4" s:y="10" s:pid="out0"><text x="5" y="-4">3</text></g></g><g s:type="split" transform="translate(116,306.5)" s:width="5" s:height="40" id="cell_$split$,10,11,12,13,"><rect width="5" height="80" class="splitjoinBody" s:generic="body"/><s:alias val="$_split_"/><g s:x="0" s:y="20" s:pid="in"/><g transform="translate(4,10)" s:x="4" s:y="10" s:pid="out0"><text x="5" y="-4">0</text></g><g transform="translate(4,30)" s:x="4" s:y="10" s:pid="out0"><text x="5" y="-4">1</text></g><g transform="translate(4,50)" s:x="4" s:y="10" s:pid="out0"><text x="5" y="-4">2</text></g><g transform="translate(4,70)" s:x="4" s:y="10" s:pid="out0"><text x="5" y="-4">3</text></g></g><g s:type="split" transform="translate(116,474.5)" s:width="5" s:height="40" id="cell_$split$,14,15,16,17,"><rect width="5" height="80" class="splitjoinBody" s:generic="body"/><s:alias val="$_split_"/><g s:x="0" s:y="20" s:pid="in"/><g transform="translate(4,10)" s:x="4" s:y="10" s:pid="out0"><text x="5" y="-4">0</text></g><g transform="translate(4,30)" s:x="4" s:y="10" s:pid="out0"><text x="5" y="-4">1</text></g><g transform="translate(4,50)" s:x="4" s:y="10" s:pid="out0"><text x="5" y="-4">2</text></g><g transform="translate(4,70)" s:x="4" s:y="10" s:pid="out0"><text x="5" y="-4">3</text></g></g><g s:type="split" transform="translate(116,591.5)" s:width="5" s:height="40" id="cell_$split$,18,19,"><rect width="5" height="40" class="splitjoinBody" s:generic="body"/><s:alias val="$_split_"/><g s:x="0" s:y="20" s:pid="in"/><g transform="translate(4,10)" s:x="4" s:y="10" s:pid="out0"><text x="5" y="-4">0</text></g><g transform="translate(4,30)" s:x="4" s:y="10" s:pid="out0"><text x="5" y="-4">1</text></g></g><line x1="121" x2="258" y1="87" y2="87" class="net_2 width_1" style="stroke-width: 1"/><line x1="258" x2="258" y1="87" y2="277" class="net_2 width_1" style="stroke-width: 1"/><line x1="258" x2="285" y1="277" y2="277" class="net_2 width_1" style="stroke-width: 1"/><line x1="121" x2="238" y1="202" y2="202" class="net_6 width_1" style="stroke-width: 1"/><line x1="238" x2="238" y1="202" y2="297" class="net_6 width_1" style="stroke-width: 1"/><line x1="238" x2="285" y1="297" y2="297" class="net_6 width_1" style="stroke-width: 1"/><line x1="121" x2="285" y1="317" y2="317" class="net_10 width_1" style="stroke-width: 1"/><line x1="121" x2="138" y1="485" y2="485" class="net_14 width_1" style="stroke-width: 1"/><line x1="138" x2="138" y1="485" y2="347" class="net_14 width_1" style="stroke-width: 1"/><line x1="138" x2="258" y1="347" y2="347" class="net_14 width_1" style="stroke-width: 1"/><line x1="258" x2="258" y1="347" y2="337" class="net_14 width_1" style="stroke-width: 1"/><line x1="258" x2="285" y1="337" y2="337" class="net_14 width_1" style="stroke-width: 1"/><line x1="121" x2="268" y1="602" y2="602" class="net_18 width_1" style="stroke-width: 1"/><line x1="268" x2="268" y1="602" y2="357" class="net_18 width_1" style="stroke-width: 1"/><circle cx="268" cy="602" r="2" style="fill:#000" class="net_18 width_1"/><line x1="268" x2="285" y1="357" y2="357" class="net_18 width_1" style="stroke-width: 1"/><line x1="121" x2="268" y1="602" y2="602" class="net_18 width_1" style="stroke-width: 1"/><line x1="268" x2="268" y1="602" y2="525" class="net_18 width_1" style="stroke-width: 1"/><circle cx="268" cy="525" r="2" style="fill:#000" class="net_18 width_1"/><line x1="268" x2="285" y1="525" y2="525" class="net_18 width_1" style="stroke-width: 1"/><line x1="121" x2="268" y1="602" y2="602" class="net_18 width_1" style="stroke-width: 1"/><line x1="268" x2="268" y1="602" y2="693" class="net_18 width_1" style="stroke-width: 1"/><circle cx="268" cy="693" r="2" style="fill:#000" class="net_18 width_1"/><line x1="268" x2="285" y1="693" y2="693" class="net_18 width_1" style="stroke-width: 1"/><line x1="121" x2="268" y1="602" y2="602" class="net_18 width_1" style="stroke-width: 1"/><line x1="268" x2="268" y1="602" y2="861" class="net_18 width_1" style="stroke-width: 1"/><line x1="268" x2="285" y1="861" y2="861" class="net_18 width_1" style="stroke-width: 1"/><line x1="121" x2="258" y1="622" y2="622" class="net_19 width_1" style="stroke-width: 1"/><line x1="258" x2="258" y1="622" y2="377" class="net_19 width_1" style="stroke-width: 1"/><circle cx="258" cy="622" r="2" style="fill:#000" class="net_19 width_1"/><line x1="258" x2="285" y1="377" y2="377" class="net_19 width_1" style="stroke-width: 1"/><line x1="121" x2="258" y1="622" y2="622" class="net_19 width_1" style="stroke-width: 1"/><line x1="258" x2="258" y1="622" y2="545" class="net_19 width_1" style="stroke-width: 1"/><circle cx="258" cy="545" r="2" style="fill:#000" class="net_19 width_1"/><line x1="258" x2="285" y1="545" y2="545" class="net_19 width_1" style="stroke-width: 1"/><line x1="121" x2="258" y1="622" y2="622" class="net_19 width_1" style="stroke-width: 1"/><line x1="258" x2="258" y1="622" y2="713" class="net_19 width_1" style="stroke-width: 1"/><circle cx="258" cy="713" r="2" style="fill:#000" class="net_19 width_1"/><line x1="258" x2="285" y1="713" y2="713" class="net_19 width_1" style="stroke-width: 1"/><line x1="121" x2="258" y1="622" y2="622" class="net_19 width_1" style="stroke-width: 1"/><line x1="258" x2="258" y1="622" y2="881" class="net_19 width_1" style="stroke-width: 1"/><line x1="258" x2="285" y1="881" y2="881" class="net_19 width_1" style="stroke-width: 1"/><line x1="121" x2="248" y1="107" y2="107" class="net_3 width_1" style="stroke-width: 1"/><line x1="248" x2="248" y1="107" y2="445" class="net_3 width_1" style="stroke-width: 1"/><line x1="248" x2="285" y1="445" y2="445" class="net_3 width_1" style="stroke-width: 1"/><line x1="121" x2="218" y1="222" y2="222" class="net_7 width_1" style="stroke-width: 1"/><line x1="218" x2="218" y1="222" y2="465" class="net_7 width_1" style="stroke-width: 1"/><line x1="218" x2="285" y1="465" y2="465" class="net_7 width_1" style="stroke-width: 1"/><line x1="121" x2="188" y1="337" y2="337" class="net_11 width_1" style="stroke-width: 1"/><line x1="188" x2="188" y1="337" y2="485" class="net_11 width_1" style="stroke-width: 1"/><line x1="188" x2="285" y1="485" y2="485" class="net_11 width_1" style="stroke-width: 1"/><line x1="121" x2="285" y1="505" y2="505" class="net_15 width_1" style="stroke-width: 1"/><line x1="121" x2="228" y1="127" y2="127" class="net_4 width_1" style="stroke-width: 1"/><line x1="228" x2="228" y1="127" y2="613" class="net_4 width_1" style="stroke-width: 1"/><line x1="228" x2="285" y1="613" y2="613" class="net_4 width_1" style="stroke-width: 1"/><line x1="121" x2="198" y1="242" y2="242" class="net_8 width_1" style="stroke-width: 1"/><line x1="198" x2="198" y1="242" y2="633" class="net_8 width_1" style="stroke-width: 1"/><line x1="198" x2="285" y1="633" y2="633" class="net_8 width_1" style="stroke-width: 1"/><line x1="121" x2="168" y1="357" y2="357" class="net_12 width_1" style="stroke-width: 1"/><line x1="168" x2="168" y1="357" y2="653" class="net_12 width_1" style="stroke-width: 1"/><line x1="168" x2="285" y1="653" y2="653" class="net_12 width_1" style="stroke-width: 1"/><line x1="121" x2="148" y1="525" y2="525" class="net_16 width_1" style="stroke-width: 1"/><line x1="148" x2="148" y1="525" y2="673" class="net_16 width_1" style="stroke-width: 1"/><line x1="148" x2="285" y1="673" y2="673" class="net_16 width_1" style="stroke-width: 1"/><line x1="121" x2="208" y1="147" y2="147" class="net_5 width_1" style="stroke-width: 1"/><line x1="208" x2="208" y1="147" y2="781" class="net_5 width_1" style="stroke-width: 1"/><line x1="208" x2="285" y1="781" y2="781" class="net_5 width_1" style="stroke-width: 1"/><line x1="121" x2="178" y1="262" y2="262" class="net_9 width_1" style="stroke-width: 1"/><line x1="178" x2="178" y1="262" y2="801" class="net_9 width_1" style="stroke-width: 1"/><line x1="178" x2="285" y1="801" y2="801" class="net_9 width_1" style="stroke-width: 1"/><line x1="121" x2="158" y1="377" y2="377" class="net_13 width_1" style="stroke-width: 1"/><line x1="158" x2="158" y1="377" y2="821" class="net_13 width_1" style="stroke-width: 1"/><line x1="158" x2="285" y1="821" y2="821" class="net_13 width_1" style="stroke-width: 1"/><line x1="121" x2="138" y1="545" y2="545" class="net_17 width_1" style="stroke-width: 1"/><line x1="138" x2="138" y1="545" y2="841" class="net_17 width_1" style="stroke-width: 1"/><line x1="138" x2="285" y1="841" y2="841" class="net_17 width_1" style="stroke-width: 1"/><line x1="609" x2="683" y1="435" y2="435" class="net_20,21,22,23 width_4" style="stroke-width: 2"/><line x1="316" x2="571" y1="277" y2="277" class="net_20 width_1" style="stroke-width: 1"/><line x1="571" x2="571" y1="277" y2="425" class="net_20 width_1" style="stroke-width: 1"/><line x1="571" x2="603" y1="425" y2="425" class="net_20 width_1" style="stroke-width: 1"/><line x1="316" x2="603" y1="445" y2="445" class="net_21 width_1" style="stroke-width: 1"/><line x1="316" x2="571" y1="613" y2="613" class="net_22 width_1" style="stroke-width: 1"/><line x1="571" x2="571" y1="613" y2="465" class="net_22 width_1" style="stroke-width: 1"/><line x1="571" x2="603" y1="465" y2="465" class="net_22 width_1" style="stroke-width: 1"/><line x1="316" x2="603.5" y1="781" y2="781" class="net_23 width_1" style="stroke-width: 1"/><line x1="603.5" x2="603.5" y1="781" y2="485.5" class="net_23 width_1" style="stroke-width: 1"/><line x1="42" x2="116" y1="97" y2="97" class="net_2,3,4,5 width_4" style="stroke-width: 2"/><line x1="42" x2="116" y1="212" y2="212" class="net_6,7,8,9 width_4" style="stroke-width: 2"/><line x1="42" x2="116" y1="327" y2="327" class="net_10,11,12,13 width_4" style="stroke-width: 2"/><line x1="42" x2="116" y1="495" y2="495" class="net_14,15,16,17 width_4" style="stroke-width: 2"/><line x1="42" x2="91" y1="32" y2="32" class="net_18,19 width_2" style="stroke-width: 2"/><line x1="91" x2="91" y1="32" y2="612" class="net_18,19 width_2" style="stroke-width: 2"/><line x1="91" x2="116" y1="612" y2="612" class="net_18,19 width_2" style="stroke-width: 2"/><rect x="645" y="430" width="16" height="9" class="net_20,21,22,23 width_4 busLabel_4" style="fill: white; stroke: none"/><text x="644" y="438" class="net_20,21,22,23 width_4 busLabel_4">/4/</text><rect x="78" y="92" width="16" height="9" class="net_2,3,4,5 width_4 busLabel_4" style="fill: white; stroke: none"/><text x="77" y="100" class="net_2,3,4,5 width_4 busLabel_4">/4/</text><rect x="78" y="207" width="16" height="9" class="net_6,7,8,9 width_4 busLabel_4" style="fill: white; stroke: none"/><text x="77" y="215" class="net_6,7,8,9 width_4 busLabel_4">/4/</text><rect x="78" y="322" width="16" height="9" class="net_10,11,12,13 width_4 busLabel_4" style="fill: white; stroke: none"/><text x="77" y="330" class="net_10,11,12,13 width_4 busLabel_4">/4/</text><rect x="78" y="490" width="16" height="9" class="net_14,15,16,17 width_4 busLabel_4" style="fill: white; stroke: none"/><text x="77" y="498" class="net_14,15,16,17 width_4 busLabel_4">/4/</text><rect x="78" y="27" width="16" height="9" class="net_18,19 width_2 busLabel_2" style="fill: white; stroke: none"/><text x="77" y="35" class="net_18,19 width_2 busLabel_2">/2/</text></svg>