<svg xmlns="http://www.w3.org/2000/svg" xmlns:xlink="http://www.w3.org/1999/xlink" xmlns:s="https://github.com/nturley/netlistsvg" width="400" height="229"><style>svg {
  stroke:#000;
  fill:none;
}
text {
  fill:#000;
  stroke:none;
  font-size:10px;
  font-weight: bold;
  font-family: "Courier New", monospace;
}
line {
    stroke-linecap: round;
}
.nodelabel {
  text-anchor: middle;
}
.inputPortLabel {
  text-anchor: end;
}
.splitjoinBody {
  fill:#000;
}</style><g s:type="and" transform="translate(228,184.5)" s:width="30" s:height="25" id="cell_$abc$97$auto$blifparse.cc:386:parse_blif$100"><s:alias val="$and"/><s:alias val="$logic_and"/><s:alias val="$_AND_"/><s:alias val="$reduce_and"/><path d="M0,0 L0,25 L15,25 A15 12.5 0 0 0 15,0 Z" class="cell_$abc$97$auto$blifparse.cc:386:parse_blif$100"/><g s:x="0" s:y="5" s:pid="A"/><g s:x="0" s:y="20" s:pid="B"/><g s:x="30" s:y="12.5" s:pid="Y"/></g><g s:type="and" transform="translate(163,12)" s:width="30" s:height="25" id="cell_$abc$97$auto$blifparse.cc:386:parse_blif$101"><s:alias val="$and"/><s:alias val="$logic_and"/><s:alias val="$_AND_"/><s:alias val="$reduce_and"/><path d="M0,0 L0,25 L15,25 A15 12.5 0 0 0 15,0 Z" class="cell_$abc$97$auto$blifparse.cc:386:parse_blif$101"/><g s:x="0" s:y="5" s:pid="A"/><g s:x="0" s:y="20" s:pid="B"/><g s:x="30" s:y="12.5" s:pid="Y"/></g><g s:type="and" transform="translate(163,72)" s:width="30" s:height="25" id="cell_$abc$97$auto$blifparse.cc:386:parse_blif$102"><s:alias val="$and"/><s:alias val="$logic_and"/><s:alias val="$_AND_"/><s:alias val="$reduce_and"/><path d="M0,0 L0,25 L15,25 A15 12.5 0 0 0 15,0 Z" class="cell_$abc$97$auto$blifparse.cc:386:parse_blif$102"/><g s:x="0" s:y="5" s:pid="A"/><g s:x="0" s:y="20" s:pid="B"/><g s:x="30" s:y="12.5" s:pid="Y"/></g><g s:type="and" transform="translate(228,64.5)" s:width="30" s:height="25" id="cell_$abc$97$auto$blifparse.cc:386:parse_blif$103"><s:alias val="$and"/><s:alias val="$logic_and"/><s:alias val="$_AND_"/><s:alias val="$reduce_and"/><path d="M0,0 L0,25 L15,25 A15 12.5 0 0 0 15,0 Z" class="cell_$abc$97$auto$blifparse.cc:386:parse_blif$103"/><g s:x="0" s:y="5" s:pid="A"/><g s:x="0" s:y="20" s:pid="B"/><g s:x="30" s:y="12.5" s:pid="Y"/></g><g s:type="and" transform="translate(293,192)" s:width="30" s:height="25" id="cell_$abc$97$auto$blifparse.cc:386:parse_blif$104"><s:alias val="$and"/><s:alias val="$logic_and"/><s:alias val="$_AND_"/><s:alias val="$reduce_and"/><path d="M0,0 L0,25 L15,25 A15 12.5 0 0 0 15,0 Z" class="cell_$abc$97$auto$blifparse.cc:386:parse_blif$104"/><g s:x="0" s:y="5" s:pid="A"/><g s:x="0" s:y="20" s:pid="B"/><g s:x="30" s:y="12.5" s:pid="Y"/></g><g s:type="and" transform="translate(163,132)" s:width="30" s:height="25" id="cell_$abc$97$auto$blifparse.cc:386:parse_blif$98"><s:alias val="$and"/><s:alias val="$logic_and"/><s:alias val="$_AND_"/><s:alias val="$reduce_and"/><path d="M0,0 L0,25 L15,25 A15 12.5 0 0 0 15,0 Z" class="cell_$abc$97$auto$blifparse.cc:386:parse_blif$98"/><g s:x="0" s:y="5" s:pid="A"/><g s:x="0" s:y="20" s:pid="B"/><g s:x="30" s:y="12.5" s:pid="Y"/></g><g s:type="and" transform="translate(163,192)" s:width="30" s:height="25" id="cell_$abc$97$auto$blifparse.cc:386:parse_blif$99"><s:alias val="$and"/><s:alias val="$logic_and"/><s:alias val="$_AND_"/><s:alias val="$reduce_and"/><path d="M0,0 L0,25 L15,25 A15 12.5 0 0 0 15,0 Z" class="cell_$abc$97$auto$blifparse.cc:386:parse_blif$99"/><g s:x="0" s:y="5" s:pid="A"/><g s:x="0" s:y="20" s:pid="B"/><g s:x="30" s:y="12.5" s:pid="Y"/></g><g s:type="inputExt" transform="translate(12,52)" s:width="30" s:height="20" id="cell_a"><text x="15" y="-4" class="nodelabel cell_a" s:attribute="ref">a</text><s:alias val="$_inputExt_"/><path d="M0,0 L0,20 L15,20 L30,10 L15,0 Z" class="cell_a"/><g s:x="30" s:y="10" s:pid="Y"/></g><g s:type="outputExt" transform="translate(358,194.5)" s:width="30" s:height="20" id="cell_y"><text x="15" y="-4" class="nodelabel cell_y" s:attribute="ref">y</text><s:alias val="$_outputExt_"/><path d="M30,0 L30,20 L15,20 L0,10 L15,0 Z" class="cell_y"/><g s:x="0" s:y="10" s:pid="A"/></g><g s:type="split" transform="translate(116,41.5)" s:width="5" s:height="40" id="cell_$split$,2,3,4,5,6,7,8,9,"><rect width="5" height="160" class="splitjoinBody" s:generic="body"/><s:alias val="$_split_"/><g s:x="0" s:y="20" s:pid="in"/><g transform="translate(4,10)" s:x="4" s:y="10" s:pid="out0"><text x="5" y="-4">1</text></g><g transform="translate(4,30)" s:x="4" s:y="10" s:pid="out0"><text x="5" y="-4">0</text></g><g transform="translate(4,50)" s:x="4" s:y="10" s:pid="out0"><text x="5" y="-4">3</text></g><g transform="translate(4,70)" s:x="4" s:y="10" s:pid="out0"><text x="5" y="-4">2</text></g><g transform="translate(4,90)" s:x="4" s:y="10" s:pid="out0"><text x="5" y="-4">5</text></g><g transform="translate(4,110)" s:x="4" s:y="10" s:pid="out0"><text x="5" y="-4">4</text></g><g transform="translate(4,130)" s:x="4" s:y="10" s:pid="out0"><text x="5" y="-4">7</text></g><g transform="translate(4,150)" s:x="4" s:y="10" s:pid="out0"><text x="5" y="-4">6</text></g></g><line x1="193" x2="203" y1="144.5" y2="144.5" class="net_11 width_1" style="stroke-width: 1"/><line x1="203" x2="203" y1="144.5" y2="189.5" class="net_11 width_1" style="stroke-width: 1"/><line x1="203" x2="228" y1="189.5" y2="189.5" class="net_11 width_1" style="stroke-width: 1"/><line x1="193" x2="228" y1="204.5" y2="204.5" class="net_12 width_1" style="stroke-width: 1"/><line x1="120.5" x2="120.5" y1="51.5" y2="17" class="net_3 width_1" style="stroke-width: 1"/><line x1="120.5" x2="163" y1="17" y2="17" class="net_3 width_1" style="stroke-width: 1"/><line x1="121" x2="138" y1="72" y2="72" class="net_2 width_1" style="stroke-width: 1"/><line x1="138" x2="138" y1="72" y2="32" class="net_2 width_1" style="stroke-width: 1"/><line x1="138" x2="163" y1="32" y2="32" class="net_2 width_1" style="stroke-width: 1"/><line x1="121" x2="138" y1="92" y2="92" class="net_5 width_1" style="stroke-width: 1"/><line x1="138" x2="138" y1="92" y2="77" class="net_5 width_1" style="stroke-width: 1"/><line x1="138" x2="163" y1="77" y2="77" class="net_5 width_1" style="stroke-width: 1"/><line x1="121" x2="148" y1="112" y2="112" class="net_4 width_1" style="stroke-width: 1"/><line x1="148" x2="148" y1="112" y2="92" class="net_4 width_1" style="stroke-width: 1"/><line x1="148" x2="163" y1="92" y2="92" class="net_4 width_1" style="stroke-width: 1"/><line x1="193" x2="203" y1="24.5" y2="24.5" class="net_14 width_1" style="stroke-width: 1"/><line x1="203" x2="203" y1="24.5" y2="69.5" class="net_14 width_1" style="stroke-width: 1"/><line x1="203" x2="228" y1="69.5" y2="69.5" class="net_14 width_1" style="stroke-width: 1"/><line x1="193" x2="228" y1="84.5" y2="84.5" class="net_15 width_1" style="stroke-width: 1"/><line x1="258" x2="293" y1="197" y2="197" class="net_13 width_1" style="stroke-width: 1"/><line x1="258" x2="268" y1="77" y2="77" class="net_16 width_1" style="stroke-width: 1"/><line x1="268" x2="268" y1="77" y2="212" class="net_16 width_1" style="stroke-width: 1"/><line x1="268" x2="293" y1="212" y2="212" class="net_16 width_1" style="stroke-width: 1"/><line x1="121" x2="138" y1="132" y2="132" class="net_7 width_1" style="stroke-width: 1"/><line x1="138" x2="138" y1="132" y2="137" class="net_7 width_1" style="stroke-width: 1"/><line x1="138" x2="163" y1="137" y2="137" class="net_7 width_1" style="stroke-width: 1"/><line x1="121" x2="163" y1="152" y2="152" class="net_6 width_1" style="stroke-width: 1"/><line x1="121" x2="138" y1="172" y2="172" class="net_9 width_1" style="stroke-width: 1"/><line x1="138" x2="138" y1="172" y2="197" class="net_9 width_1" style="stroke-width: 1"/><line x1="138" x2="163" y1="197" y2="197" class="net_9 width_1" style="stroke-width: 1"/><line x1="120.5" x2="120.5" y1="192.5" y2="212" class="net_8 width_1" style="stroke-width: 1"/><line x1="120.5" x2="163" y1="212" y2="212" class="net_8 width_1" style="stroke-width: 1"/><line x1="323" x2="358" y1="204.5" y2="204.5" class="net_10 width_1" style="stroke-width: 1"/><line x1="42" x2="116" y1="62" y2="62" class="net_2,3,4,5,6,7,8,9 width_8" style="stroke-width: 2"/><rect x="78" y="57" width="16" height="9" class="net_2,3,4,5,6,7,8,9 width_8 busLabel_8" style="fill: white; stroke: none"/><text x="77" y="65" class="net_2,3,4,5,6,7,8,9 width_8 busLabel_8">/8/</text></svg>