<svg xmlns="http://www.w3.org/2000/svg" xmlns:xlink="http://www.w3.org/1999/xlink" xmlns:s="https://github.com/nturley/netlistsvg" width="495" height="924.5"><style>svg {
  stroke:#000;
  fill:none;
}
text {
  fill:#000;
  stroke:none;
  font-size:10px;
  font-weight: bold;
  font-family: "Courier New", monospace;
}
line {
    stroke-linecap: round;
}
.nodelabel {
  text-anchor: middle;
}
.inputPortLabel {
  text-anchor: end;
}
.splitjoinBody {
  fill:#000;
}</style><g s:type="and" transform="translate(218,799)" s:width="30" s:height="25" id="cell_$abc$126$auto$blifparse.cc:396:parse_blif$127"><s:alias val="$and"/><s:alias val="$logic_and"/><s:alias val="$_AND_"/><s:alias val="$reduce_and"/><path d="M0,0 L0,25 L15,25 A15 12.5 0 0 0 15,0 Z" class="cell_$abc$126$auto$blifparse.cc:396:parse_blif$127"/><g s:x="0" s:y="5" s:pid="A"/><g s:x="0" s:y="20" s:pid="B"/><g s:x="30" s:y="12.5" s:pid="Y"/></g><g s:type="not" transform="translate(299.5,801.5)" s:width="30" s:height="20" id="cell_$abc$126$auto$blifparse.cc:396:parse_blif$128"><s:alias val="$_NOT_"/><s:alias val="$not"/><s:alias val="$logic_not"/><path d="M0,0 L0,20 L20,10 Z" class="cell_$abc$126$auto$blifparse.cc:396:parse_blif$128"/><circle cx="24" cy="10" r="3" class="cell_$abc$126$auto$blifparse.cc:396:parse_blif$128"/><g s:x="-1" s:y="10" s:pid="A"/><g s:x="27" s:y="10" s:pid="Y"/></g><g s:type="or" transform="translate(218,12)" s:width="30" s:height="25" id="cell_$abc$126$auto$blifparse.cc:396:parse_blif$129"><s:alias val="$or"/><s:alias val="$logic_or"/><s:alias val="$_OR_"/><s:alias val="$reduce_or"/><s:alias val="$reduce_bool"/><path d="M0,0 A30 25 0 0 1 0,25 A30 25 0 0 0 30,12.5 A30 25 0 0 0 0,0" class="cell_$abc$126$auto$blifparse.cc:396:parse_blif$129"/><g s:x="2" s:y="5" s:pid="A"/><g s:x="2" s:y="20" s:pid="B"/><g s:x="30" s:y="12.5" s:pid="Y"/></g><g s:type="not" transform="translate(299.5,14.5)" s:width="30" s:height="20" id="cell_$abc$126$auto$blifparse.cc:396:parse_blif$130"><s:alias val="$_NOT_"/><s:alias val="$not"/><s:alias val="$logic_not"/><path d="M0,0 L0,20 L20,10 Z" class="cell_$abc$126$auto$blifparse.cc:396:parse_blif$130"/><circle cx="24" cy="10" r="3" class="cell_$abc$126$auto$blifparse.cc:396:parse_blif$130"/><g s:x="-1" s:y="10" s:pid="A"/><g s:x="27" s:y="10" s:pid="Y"/></g><g s:type="or" transform="translate(218,72)" s:width="30" s:height="25" id="cell_$abc$126$auto$blifparse.cc:396:parse_blif$131"><s:alias val="$or"/><s:alias val="$logic_or"/><s:alias val="$_OR_"/><s:alias val="$reduce_or"/><s:alias val="$reduce_bool"/><path d="M0,0 A30 25 0 0 1 0,25 A30 25 0 0 0 30,12.5 A30 25 0 0 0 0,0" class="cell_$abc$126$auto$blifparse.cc:396:parse_blif$131"/><g s:x="2" s:y="5" s:pid="A"/><g s:x="2" s:y="20" s:pid="B"/><g s:x="30" s:y="12.5" s:pid="Y"/></g><g s:type="not" transform="translate(299.5,74.5)" s:width="30" s:height="20" id="cell_$abc$126$auto$blifparse.cc:396:parse_blif$132"><s:alias val="$_NOT_"/><s:alias val="$not"/><s:alias val="$logic_not"/><path d="M0,0 L0,20 L20,10 Z" class="cell_$abc$126$auto$blifparse.cc:396:parse_blif$132"/><circle cx="24" cy="10" r="3" class="cell_$abc$126$auto$blifparse.cc:396:parse_blif$132"/><g s:x="-1" s:y="10" s:pid="A"/><g s:x="27" s:y="10" s:pid="Y"/></g><g s:type="or" transform="translate(218,132)" s:width="30" s:height="25" id="cell_$abc$126$auto$blifparse.cc:396:parse_blif$133"><s:alias val="$or"/><s:alias val="$logic_or"/><s:alias val="$_OR_"/><s:alias val="$reduce_or"/><s:alias val="$reduce_bool"/><path d="M0,0 A30 25 0 0 1 0,25 A30 25 0 0 0 30,12.5 A30 25 0 0 0 0,0" class="cell_$abc$126$auto$blifparse.cc:396:parse_blif$133"/><g s:x="2" s:y="5" s:pid="A"/><g s:x="2" s:y="20" s:pid="B"/><g s:x="30" s:y="12.5" s:pid="Y"/></g><g s:type="not" transform="translate(299.5,134.5)" s:width="30" s:height="20" id="cell_$abc$126$auto$blifparse.cc:396:parse_blif$134"><s:alias val="$_NOT_"/><s:alias val="$not"/><s:alias val="$logic_not"/><path d="M0,0 L0,20 L20,10 Z" class="cell_$abc$126$auto$blifparse.cc:396:parse_blif$134"/><circle cx="24" cy="10" r="3" class="cell_$abc$126$auto$blifparse.cc:396:parse_blif$134"/><g s:x="-1" s:y="10" s:pid="A"/><g s:x="27" s:y="10" s:pid="Y"/></g><g s:type="or" transform="translate(218,192)" s:width="30" s:height="25" id="cell_$abc$126$auto$blifparse.cc:396:parse_blif$135"><s:alias val="$or"/><s:alias val="$logic_or"/><s:alias val="$_OR_"/><s:alias val="$reduce_or"/><s:alias val="$reduce_bool"/><path d="M0,0 A30 25 0 0 1 0,25 A30 25 0 0 0 30,12.5 A30 25 0 0 0 0,0" class="cell_$abc$126$auto$blifparse.cc:396:parse_blif$135"/><g s:x="2" s:y="5" s:pid="A"/><g s:x="2" s:y="20" s:pid="B"/><g s:x="30" s:y="12.5" s:pid="Y"/></g><g s:type="not" transform="translate(299.5,194.5)" s:width="30" s:height="20" id="cell_$abc$126$auto$blifparse.cc:396:parse_blif$136"><s:alias val="$_NOT_"/><s:alias val="$not"/><s:alias val="$logic_not"/><path d="M0,0 L0,20 L20,10 Z" class="cell_$abc$126$auto$blifparse.cc:396:parse_blif$136"/><circle cx="24" cy="10" r="3" class="cell_$abc$126$auto$blifparse.cc:396:parse_blif$136"/><g s:x="-1" s:y="10" s:pid="A"/><g s:x="27" s:y="10" s:pid="Y"/></g><g s:type="and" transform="translate(218,619)" s:width="30" s:height="25" id="cell_$abc$126$auto$blifparse.cc:396:parse_blif$137"><s:alias val="$and"/><s:alias val="$logic_and"/><s:alias val="$_AND_"/><s:alias val="$reduce_and"/><path d="M0,0 L0,25 L15,25 A15 12.5 0 0 0 15,0 Z" class="cell_$abc$126$auto$blifparse.cc:396:parse_blif$137"/><g s:x="0" s:y="5" s:pid="A"/><g s:x="0" s:y="20" s:pid="B"/><g s:x="30" s:y="12.5" s:pid="Y"/></g><g s:type="not" transform="translate(299.5,621.5)" s:width="30" s:height="20" id="cell_$abc$126$auto$blifparse.cc:396:parse_blif$138"><s:alias val="$_NOT_"/><s:alias val="$not"/><s:alias val="$logic_not"/><path d="M0,0 L0,20 L20,10 Z" class="cell_$abc$126$auto$blifparse.cc:396:parse_blif$138"/><circle cx="24" cy="10" r="3" class="cell_$abc$126$auto$blifparse.cc:396:parse_blif$138"/><g s:x="-1" s:y="10" s:pid="A"/><g s:x="27" s:y="10" s:pid="Y"/></g><g s:type="and" transform="translate(218,679)" s:width="30" s:height="25" id="cell_$abc$126$auto$blifparse.cc:396:parse_blif$139"><s:alias val="$and"/><s:alias val="$logic_and"/><s:alias val="$_AND_"/><s:alias val="$reduce_and"/><path d="M0,0 L0,25 L15,25 A15 12.5 0 0 0 15,0 Z" class="cell_$abc$126$auto$blifparse.cc:396:parse_blif$139"/><g s:x="0" s:y="5" s:pid="A"/><g s:x="0" s:y="20" s:pid="B"/><g s:x="30" s:y="12.5" s:pid="Y"/></g><g s:type="not" transform="translate(299.5,681.5)" s:width="30" s:height="20" id="cell_$abc$126$auto$blifparse.cc:396:parse_blif$140"><s:alias val="$_NOT_"/><s:alias val="$not"/><s:alias val="$logic_not"/><path d="M0,0 L0,20 L20,10 Z" class="cell_$abc$126$auto$blifparse.cc:396:parse_blif$140"/><circle cx="24" cy="10" r="3" class="cell_$abc$126$auto$blifparse.cc:396:parse_blif$140"/><g s:x="-1" s:y="10" s:pid="A"/><g s:x="27" s:y="10" s:pid="Y"/></g><g s:type="and" transform="translate(218,739)" s:width="30" s:height="25" id="cell_$abc$126$auto$blifparse.cc:396:parse_blif$141"><s:alias val="$and"/><s:alias val="$logic_and"/><s:alias val="$_AND_"/><s:alias val="$reduce_and"/><path d="M0,0 L0,25 L15,25 A15 12.5 0 0 0 15,0 Z" class="cell_$abc$126$auto$blifparse.cc:396:parse_blif$141"/><g s:x="0" s:y="5" s:pid="A"/><g s:x="0" s:y="20" s:pid="B"/><g s:x="30" s:y="12.5" s:pid="Y"/></g><g s:type="not" transform="translate(299.5,741.5)" s:width="30" s:height="20" id="cell_$abc$126$auto$blifparse.cc:396:parse_blif$142"><s:alias val="$_NOT_"/><s:alias val="$not"/><s:alias val="$logic_not"/><path d="M0,0 L0,20 L20,10 Z" class="cell_$abc$126$auto$blifparse.cc:396:parse_blif$142"/><circle cx="24" cy="10" r="3" class="cell_$abc$126$auto$blifparse.cc:396:parse_blif$142"/><g s:x="-1" s:y="10" s:pid="A"/><g s:x="27" s:y="10" s:pid="Y"/></g><g s:type="reduce_xor" transform="translate(298,315.5)" s:width="33" s:height="25" id="cell_$abc$126$auto$blifparse.cc:396:parse_blif$143"><s:alias val="$xor"/><s:alias val="$reduce_xor"/><s:alias val="$_XOR_"/><path d="M3,0 A30 25 0 0 1 3,25 A30 25 0 0 0 33,12.5 A30 25 0 0 0 3,0" class="cell_$abc$126$auto$blifparse.cc:396:parse_blif$143"/><path d="M0,0 A30 25 0 0 1 0,25" class="cell_$abc$126$auto$blifparse.cc:396:parse_blif$143"/><g s:x="2" s:y="5" s:pid="A"/><g s:x="2" s:y="20" s:pid="B"/><g s:x="33" s:y="12.5" s:pid="Y"/></g><g s:type="reduce_xor" transform="translate(298,375.5)" s:width="33" s:height="25" id="cell_$abc$126$auto$blifparse.cc:396:parse_blif$144"><s:alias val="$xor"/><s:alias val="$reduce_xor"/><s:alias val="$_XOR_"/><path d="M3,0 A30 25 0 0 1 3,25 A30 25 0 0 0 33,12.5 A30 25 0 0 0 3,0" class="cell_$abc$126$auto$blifparse.cc:396:parse_blif$144"/><path d="M0,0 A30 25 0 0 1 0,25" class="cell_$abc$126$auto$blifparse.cc:396:parse_blif$144"/><g s:x="2" s:y="5" s:pid="A"/><g s:x="2" s:y="20" s:pid="B"/><g s:x="33" s:y="12.5" s:pid="Y"/></g><g s:type="reduce_xor" transform="translate(298,501.5)" s:width="33" s:height="25" id="cell_$abc$126$auto$blifparse.cc:396:parse_blif$145"><s:alias val="$xor"/><s:alias val="$reduce_xor"/><s:alias val="$_XOR_"/><path d="M3,0 A30 25 0 0 1 3,25 A30 25 0 0 0 33,12.5 A30 25 0 0 0 3,0" class="cell_$abc$126$auto$blifparse.cc:396:parse_blif$145"/><path d="M0,0 A30 25 0 0 1 0,25" class="cell_$abc$126$auto$blifparse.cc:396:parse_blif$145"/><g s:x="2" s:y="5" s:pid="A"/><g s:x="2" s:y="20" s:pid="B"/><g s:x="33" s:y="12.5" s:pid="Y"/></g><g s:type="reduce_xor" transform="translate(298,561.5)" s:width="33" s:height="25" id="cell_$abc$126$auto$blifparse.cc:396:parse_blif$146"><s:alias val="$xor"/><s:alias val="$reduce_xor"/><s:alias val="$_XOR_"/><path d="M3,0 A30 25 0 0 1 3,25 A30 25 0 0 0 33,12.5 A30 25 0 0 0 3,0" class="cell_$abc$126$auto$blifparse.cc:396:parse_blif$146"/><path d="M0,0 A30 25 0 0 1 0,25" class="cell_$abc$126$auto$blifparse.cc:396:parse_blif$146"/><g s:x="2" s:y="5" s:pid="A"/><g s:x="2" s:y="20" s:pid="B"/><g s:x="33" s:y="12.5" s:pid="Y"/></g><g s:type="inputExt" transform="translate(12,455.5)" s:width="30" s:height="20" id="cell_a"><text x="15" y="-4" class="nodelabel cell_a" s:attribute="ref">a</text><s:alias val="$_inputExt_"/><path d="M0,0 L0,20 L15,20 L30,10 L15,0 Z" class="cell_a"/><g s:x="30" s:y="10" s:pid="Y"/></g><g s:type="inputExt" transform="translate(12,340.5)" s:width="30" s:height="20" id="cell_b"><text x="15" y="-4" class="nodelabel cell_b" s:attribute="ref">b</text><s:alias val="$_inputExt_"/><path d="M0,0 L0,20 L15,20 L30,10 L15,0 Z" class="cell_b"/><g s:x="30" s:y="10" s:pid="Y"/></g><g s:type="outputExt" transform="translate(453,832)" s:width="30" s:height="20" id="cell_y1"><text x="15" y="-4" class="nodelabel cell_y1" s:attribute="ref">y1</text><s:alias val="$_outputExt_"/><path d="M30,0 L30,20 L15,20 L0,10 L15,0 Z" class="cell_y1"/><g s:x="0" s:y="10" s:pid="A"/></g><g s:type="outputExt" transform="translate(453,225)" s:width="30" s:height="20" id="cell_y2"><text x="15" y="-4" class="nodelabel cell_y2" s:attribute="ref">y2</text><s:alias val="$_outputExt_"/><path d="M30,0 L30,20 L15,20 L0,10 L15,0 Z" class="cell_y2"/><g s:x="0" s:y="10" s:pid="A"/></g><g s:type="outputExt" transform="translate(453,328)" s:width="30" s:height="20" id="cell_y3"><text x="15" y="-4" class="nodelabel cell_y3" s:attribute="ref">y3</text><s:alias val="$_outputExt_"/><path d="M30,0 L30,20 L15,20 L0,10 L15,0 Z" class="cell_y3"/><g s:x="0" s:y="10" s:pid="A"/></g><g s:type="outputExt" transform="translate(453,631.5)" s:width="30" s:height="20" id="cell_y4"><text x="15" y="-4" class="nodelabel cell_y4" s:attribute="ref">y4</text><s:alias val="$_outputExt_"/><path d="M30,0 L30,20 L15,20 L0,10 L15,0 Z" class="cell_y4"/><g s:x="0" s:y="10" s:pid="A"/></g><g s:type="outputExt" transform="translate(453,24.5)" s:width="30" s:height="20" id="cell_y5"><text x="15" y="-4" class="nodelabel cell_y5" s:attribute="ref">y5</text><s:alias val="$_outputExt_"/><path d="M30,0 L30,20 L15,20 L0,10 L15,0 Z" class="cell_y5"/><g s:x="0" s:y="10" s:pid="A"/></g><g s:type="join" transform="translate(373,821.5)" s:width="4" s:height="40" id="cell_$join$,10,11,12,13,"><rect width="5" height="80" class="splitjoinBody" s:generic="body"/><s:alias val="$_join_"/><g s:x="5" s:y="20" s:pid="out"/><g transform="translate(0,10)" s:x="0" s:y="10" s:pid="in0"><text x="-3" y="-4" class="inputPortLabel">0</text></g><g transform="translate(0,30)" s:x="0" s:y="10" s:pid="in0"><text x="-3" y="-4" class="inputPortLabel">1</text></g><g transform="translate(0,50)" s:x="0" s:y="10" s:pid="in0"><text x="-3" y="-4" class="inputPortLabel">2</text></g><g transform="translate(0,70)" s:x="0" s:y="10" s:pid="in0"><text x="-3" y="-4" class="inputPortLabel">3</text></g></g><g s:type="join" transform="translate(373,214.5)" s:width="4" s:height="40" id="cell_$join$,14,15,16,17,"><rect width="5" height="80" class="splitjoinBody" s:generic="body"/><s:alias val="$_join_"/><g s:x="5" s:y="20" s:pid="out"/><g transform="translate(0,10)" s:x="0" s:y="10" s:pid="in0"><text x="-3" y="-4" class="inputPortLabel">0</text></g><g transform="translate(0,30)" s:x="0" s:y="10" s:pid="in0"><text x="-3" y="-4" class="inputPortLabel">1</text></g><g transform="translate(0,50)" s:x="0" s:y="10" s:pid="in0"><text x="-3" y="-4" class="inputPortLabel">2</text></g><g transform="translate(0,70)" s:x="0" s:y="10" s:pid="in0"><text x="-3" y="-4" class="inputPortLabel">3</text></g></g><g s:type="join" transform="translate(373,317.5)" s:width="4" s:height="40" id="cell_$join$,18,19,20,21,"><rect width="5" height="80" class="splitjoinBody" s:generic="body"/><s:alias val="$_join_"/><g s:x="5" s:y="20" s:pid="out"/><g transform="translate(0,10)" s:x="0" s:y="10" s:pid="in0"><text x="-3" y="-4" class="inputPortLabel">0</text></g><g transform="translate(0,30)" s:x="0" s:y="10" s:pid="in0"><text x="-3" y="-4" class="inputPortLabel">1</text></g><g transform="translate(0,50)" s:x="0" s:y="10" s:pid="in0"><text x="-3" y="-4" class="inputPortLabel">2</text></g><g transform="translate(0,70)" s:x="0" s:y="10" s:pid="in0"><text x="-3" y="-4" class="inputPortLabel">3</text></g></g><g s:type="join" transform="translate(373,621)" s:width="4" s:height="40" id="cell_$join$,22,23,24,25,"><rect width="5" height="80" class="splitjoinBody" s:generic="body"/><s:alias val="$_join_"/><g s:x="5" s:y="20" s:pid="out"/><g transform="translate(0,10)" s:x="0" s:y="10" s:pid="in0"><text x="-3" y="-4" class="inputPortLabel">0</text></g><g transform="translate(0,30)" s:x="0" s:y="10" s:pid="in0"><text x="-3" y="-4" class="inputPortLabel">1</text></g><g transform="translate(0,50)" s:x="0" s:y="10" s:pid="in0"><text x="-3" y="-4" class="inputPortLabel">2</text></g><g transform="translate(0,70)" s:x="0" s:y="10" s:pid="in0"><text x="-3" y="-4" class="inputPortLabel">3</text></g></g><g s:type="join" transform="translate(373,14)" s:width="4" s:height="40" id="cell_$join$,26,27,28,29,"><rect width="5" height="80" class="splitjoinBody" s:generic="body"/><s:alias val="$_join_"/><g s:x="5" s:y="20" s:pid="out"/><g transform="translate(0,10)" s:x="0" s:y="10" s:pid="in0"><text x="-3" y="-4" class="inputPortLabel">0</text></g><g transform="translate(0,30)" s:x="0" s:y="10" s:pid="in0"><text x="-3" y="-4" class="inputPortLabel">1</text></g><g transform="translate(0,50)" s:x="0" s:y="10" s:pid="in0"><text x="-3" y="-4" class="inputPortLabel">2</text></g><g transform="translate(0,70)" s:x="0" s:y="10" s:pid="in0"><text x="-3" y="-4" class="inputPortLabel">3</text></g></g><g s:type="split" transform="translate(116,330)" s:width="5" s:height="40" id="cell_$split$,6,7,8,9,"><rect width="5" height="80" class="splitjoinBody" s:generic="body"/><s:alias val="$_split_"/><g s:x="0" s:y="20" s:pid="in"/><g transform="translate(4,10)" s:x="4" s:y="10" s:pid="out0"><text x="5" y="-4">3</text></g><g transform="translate(4,30)" s:x="4" s:y="10" s:pid="out0"><text x="5" y="-4">0</text></g><g transform="translate(4,50)" s:x="4" s:y="10" s:pid="out0"><text x="5" y="-4">1</text></g><g transform="translate(4,70)" s:x="4" s:y="10" s:pid="out0"><text x="5" y="-4">2</text></g></g><g s:type="split" transform="translate(116,445)" s:width="5" s:height="40" id="cell_$split$,2,3,4,5,"><rect width="5" height="80" class="splitjoinBody" s:generic="body"/><s:alias val="$_split_"/><g s:x="0" s:y="20" s:pid="in"/><g transform="translate(4,10)" s:x="4" s:y="10" s:pid="out0"><text x="5" y="-4">3</text></g><g transform="translate(4,30)" s:x="4" s:y="10" s:pid="out0"><text x="5" y="-4">0</text></g><g transform="translate(4,50)" s:x="4" s:y="10" s:pid="out0"><text x="5" y="-4">1</text></g><g transform="translate(4,70)" s:x="4" s:y="10" s:pid="out0"><text x="5" y="-4">2</text></g></g><line x1="121" x2="208" y1="340.5" y2="340.5" class="net_9 width_1" style="stroke-width: 1"/><line x1="208" x2="208" y1="340.5" y2="804" class="net_9 width_1" style="stroke-width: 1"/><circle cx="208" cy="340.5" r="2" style="fill:#000" class="net_9 width_1"/><line x1="208" x2="218" y1="804" y2="804" class="net_9 width_1" style="stroke-width: 1"/><line x1="121" x2="208" y1="340.5" y2="340.5" class="net_9 width_1" style="stroke-width: 1"/><line x1="208" x2="208" y1="340.5" y2="197" class="net_9 width_1" style="stroke-width: 1"/><line x1="208" x2="220" y1="197" y2="197" class="net_9 width_1" style="stroke-width: 1"/><line x1="121" x2="208" y1="340.5" y2="340.5" class="net_9 width_1" style="stroke-width: 1"/><line x1="208" x2="208" y1="340.5" y2="566.5" class="net_9 width_1" style="stroke-width: 1"/><circle cx="208" cy="566.5" r="2" style="fill:#000" class="net_9 width_1"/><line x1="208" x2="300" y1="566.5" y2="566.5" class="net_9 width_1" style="stroke-width: 1"/><line x1="121" x2="168" y1="455.5" y2="455.5" class="net_5 width_1" style="stroke-width: 1"/><line x1="168" x2="168" y1="455.5" y2="819" class="net_5 width_1" style="stroke-width: 1"/><circle cx="168" cy="455.5" r="2" style="fill:#000" class="net_5 width_1"/><line x1="168" x2="218" y1="819" y2="819" class="net_5 width_1" style="stroke-width: 1"/><line x1="121" x2="168" y1="455.5" y2="455.5" class="net_5 width_1" style="stroke-width: 1"/><line x1="168" x2="168" y1="455.5" y2="212" class="net_5 width_1" style="stroke-width: 1"/><line x1="168" x2="220" y1="212" y2="212" class="net_5 width_1" style="stroke-width: 1"/><line x1="121" x2="168" y1="455.5" y2="455.5" class="net_5 width_1" style="stroke-width: 1"/><line x1="168" x2="168" y1="455.5" y2="581.5" class="net_5 width_1" style="stroke-width: 1"/><circle cx="168" cy="581.5" r="2" style="fill:#000" class="net_5 width_1"/><line x1="168" x2="300" y1="581.5" y2="581.5" class="net_5 width_1" style="stroke-width: 1"/><line x1="248" x2="298.5" y1="811.5" y2="811.5" class="net_13 width_1" style="stroke-width: 1"/><line x1="248" x2="258" y1="811.5" y2="811.5" class="net_13 width_1" style="stroke-width: 1"/><line x1="258" x2="258" y1="811.5" y2="911.5" class="net_13 width_1" style="stroke-width: 1"/><line x1="258" x2="373.5" y1="911.5" y2="911.5" class="net_13 width_1" style="stroke-width: 1"/><circle cx="258" cy="811.5" r="2" style="fill:#000" class="net_13 width_1"/><line x1="373.5" x2="373.5" y1="911.5" y2="892.5" class="net_13 width_1" style="stroke-width: 1"/><line x1="121" x2="198" y1="360.5" y2="360.5" class="net_6 width_1" style="stroke-width: 1"/><line x1="198" x2="198" y1="360.5" y2="17" class="net_6 width_1" style="stroke-width: 1"/><circle cx="198" cy="360.5" r="2" style="fill:#000" class="net_6 width_1"/><line x1="198" x2="220" y1="17" y2="17" class="net_6 width_1" style="stroke-width: 1"/><line x1="121" x2="198" y1="360.5" y2="360.5" class="net_6 width_1" style="stroke-width: 1"/><line x1="198" x2="198" y1="360.5" y2="624" class="net_6 width_1" style="stroke-width: 1"/><line x1="198" x2="218" y1="624" y2="624" class="net_6 width_1" style="stroke-width: 1"/><line x1="121" x2="198" y1="360.5" y2="360.5" class="net_6 width_1" style="stroke-width: 1"/><line x1="198" x2="198" y1="360.5" y2="320.5" class="net_6 width_1" style="stroke-width: 1"/><circle cx="198" cy="320.5" r="2" style="fill:#000" class="net_6 width_1"/><line x1="198" x2="300" y1="320.5" y2="320.5" class="net_6 width_1" style="stroke-width: 1"/><line x1="121" x2="158" y1="475.5" y2="475.5" class="net_2 width_1" style="stroke-width: 1"/><line x1="158" x2="158" y1="475.5" y2="32" class="net_2 width_1" style="stroke-width: 1"/><circle cx="158" cy="475.5" r="2" style="fill:#000" class="net_2 width_1"/><line x1="158" x2="220" y1="32" y2="32" class="net_2 width_1" style="stroke-width: 1"/><line x1="121" x2="158" y1="475.5" y2="475.5" class="net_2 width_1" style="stroke-width: 1"/><line x1="158" x2="158" y1="475.5" y2="639" class="net_2 width_1" style="stroke-width: 1"/><line x1="158" x2="218" y1="639" y2="639" class="net_2 width_1" style="stroke-width: 1"/><line x1="121" x2="158" y1="475.5" y2="475.5" class="net_2 width_1" style="stroke-width: 1"/><line x1="158" x2="158" y1="475.5" y2="335.5" class="net_2 width_1" style="stroke-width: 1"/><circle cx="158" cy="335.5" r="2" style="fill:#000" class="net_2 width_1"/><line x1="158" x2="300" y1="335.5" y2="335.5" class="net_2 width_1" style="stroke-width: 1"/><line x1="248" x2="298.5" y1="24.5" y2="24.5" class="net_14 width_1" style="stroke-width: 1"/><line x1="248" x2="288" y1="24.5" y2="24.5" class="net_14 width_1" style="stroke-width: 1"/><line x1="288" x2="288" y1="24.5" y2="225" class="net_14 width_1" style="stroke-width: 1"/><circle cx="288" cy="24.5" r="2" style="fill:#000" class="net_14 width_1"/><line x1="288" x2="373" y1="225" y2="225" class="net_14 width_1" style="stroke-width: 1"/><line x1="121" x2="188" y1="380.5" y2="380.5" class="net_7 width_1" style="stroke-width: 1"/><line x1="188" x2="188" y1="380.5" y2="77" class="net_7 width_1" style="stroke-width: 1"/><circle cx="188" cy="380.5" r="2" style="fill:#000" class="net_7 width_1"/><line x1="188" x2="220" y1="77" y2="77" class="net_7 width_1" style="stroke-width: 1"/><line x1="121" x2="188" y1="380.5" y2="380.5" class="net_7 width_1" style="stroke-width: 1"/><line x1="188" x2="188" y1="380.5" y2="684" class="net_7 width_1" style="stroke-width: 1"/><line x1="188" x2="218" y1="684" y2="684" class="net_7 width_1" style="stroke-width: 1"/><line x1="121" x2="300" y1="380.5" y2="380.5" class="net_7 width_1" style="stroke-width: 1"/><line x1="121" x2="148" y1="495.5" y2="495.5" class="net_3 width_1" style="stroke-width: 1"/><line x1="148" x2="148" y1="495.5" y2="92" class="net_3 width_1" style="stroke-width: 1"/><circle cx="148" cy="495.5" r="2" style="fill:#000" class="net_3 width_1"/><line x1="148" x2="220" y1="92" y2="92" class="net_3 width_1" style="stroke-width: 1"/><line x1="121" x2="148" y1="495.5" y2="495.5" class="net_3 width_1" style="stroke-width: 1"/><line x1="148" x2="148" y1="495.5" y2="699" class="net_3 width_1" style="stroke-width: 1"/><line x1="148" x2="218" y1="699" y2="699" class="net_3 width_1" style="stroke-width: 1"/><line x1="121" x2="258" y1="495.5" y2="495.5" class="net_3 width_1" style="stroke-width: 1"/><line x1="258" x2="258" y1="495.5" y2="395.5" class="net_3 width_1" style="stroke-width: 1"/><line x1="258" x2="300" y1="395.5" y2="395.5" class="net_3 width_1" style="stroke-width: 1"/><line x1="248" x2="298.5" y1="84.5" y2="84.5" class="net_15 width_1" style="stroke-width: 1"/><line x1="248" x2="278" y1="84.5" y2="84.5" class="net_15 width_1" style="stroke-width: 1"/><line x1="278" x2="278" y1="84.5" y2="245" class="net_15 width_1" style="stroke-width: 1"/><circle cx="278" cy="84.5" r="2" style="fill:#000" class="net_15 width_1"/><line x1="278" x2="373" y1="245" y2="245" class="net_15 width_1" style="stroke-width: 1"/><line x1="121" x2="178" y1="400.5" y2="400.5" class="net_8 width_1" style="stroke-width: 1"/><line x1="178" x2="178" y1="400.5" y2="137" class="net_8 width_1" style="stroke-width: 1"/><circle cx="178" cy="400.5" r="2" style="fill:#000" class="net_8 width_1"/><line x1="178" x2="220" y1="137" y2="137" class="net_8 width_1" style="stroke-width: 1"/><line x1="121" x2="178" y1="400.5" y2="400.5" class="net_8 width_1" style="stroke-width: 1"/><line x1="178" x2="178" y1="400.5" y2="744" class="net_8 width_1" style="stroke-width: 1"/><line x1="178" x2="218" y1="744" y2="744" class="net_8 width_1" style="stroke-width: 1"/><line x1="121" x2="178" y1="400.5" y2="400.5" class="net_8 width_1" style="stroke-width: 1"/><line x1="178" x2="178" y1="400.5" y2="506.5" class="net_8 width_1" style="stroke-width: 1"/><circle cx="178" cy="506.5" r="2" style="fill:#000" class="net_8 width_1"/><line x1="178" x2="300" y1="506.5" y2="506.5" class="net_8 width_1" style="stroke-width: 1"/><line x1="121" x2="138" y1="515.5" y2="515.5" class="net_4 width_1" style="stroke-width: 1"/><line x1="138" x2="138" y1="515.5" y2="152" class="net_4 width_1" style="stroke-width: 1"/><circle cx="138" cy="515.5" r="2" style="fill:#000" class="net_4 width_1"/><line x1="138" x2="220" y1="152" y2="152" class="net_4 width_1" style="stroke-width: 1"/><line x1="121" x2="138" y1="515.5" y2="515.5" class="net_4 width_1" style="stroke-width: 1"/><line x1="138" x2="138" y1="515.5" y2="759" class="net_4 width_1" style="stroke-width: 1"/><line x1="138" x2="218" y1="759" y2="759" class="net_4 width_1" style="stroke-width: 1"/><line x1="121" x2="138" y1="515.5" y2="515.5" class="net_4 width_1" style="stroke-width: 1"/><line x1="138" x2="138" y1="515.5" y2="521.5" class="net_4 width_1" style="stroke-width: 1"/><circle cx="138" cy="521.5" r="2" style="fill:#000" class="net_4 width_1"/><line x1="138" x2="300" y1="521.5" y2="521.5" class="net_4 width_1" style="stroke-width: 1"/><line x1="248" x2="298.5" y1="144.5" y2="144.5" class="net_16 width_1" style="stroke-width: 1"/><line x1="248" x2="268" y1="144.5" y2="144.5" class="net_16 width_1" style="stroke-width: 1"/><line x1="268" x2="268" y1="144.5" y2="265" class="net_16 width_1" style="stroke-width: 1"/><circle cx="268" cy="144.5" r="2" style="fill:#000" class="net_16 width_1"/><line x1="268" x2="373" y1="265" y2="265" class="net_16 width_1" style="stroke-width: 1"/><line x1="248" x2="298.5" y1="204.5" y2="204.5" class="net_17 width_1" style="stroke-width: 1"/><line x1="248" x2="258" y1="204.5" y2="204.5" class="net_17 width_1" style="stroke-width: 1"/><line x1="258" x2="258" y1="204.5" y2="304.5" class="net_17 width_1" style="stroke-width: 1"/><line x1="258" x2="373.5" y1="304.5" y2="304.5" class="net_17 width_1" style="stroke-width: 1"/><circle cx="258" cy="204.5" r="2" style="fill:#000" class="net_17 width_1"/><line x1="373.5" x2="373.5" y1="304.5" y2="285.5" class="net_17 width_1" style="stroke-width: 1"/><line x1="248" x2="298.5" y1="631.5" y2="631.5" class="net_10 width_1" style="stroke-width: 1"/><line x1="248" x2="288" y1="631.5" y2="631.5" class="net_10 width_1" style="stroke-width: 1"/><line x1="288" x2="288" y1="631.5" y2="832" class="net_10 width_1" style="stroke-width: 1"/><circle cx="288" cy="631.5" r="2" style="fill:#000" class="net_10 width_1"/><line x1="288" x2="373" y1="832" y2="832" class="net_10 width_1" style="stroke-width: 1"/><line x1="248" x2="298.5" y1="691.5" y2="691.5" class="net_11 width_1" style="stroke-width: 1"/><line x1="248" x2="278" y1="691.5" y2="691.5" class="net_11 width_1" style="stroke-width: 1"/><line x1="278" x2="278" y1="691.5" y2="852" class="net_11 width_1" style="stroke-width: 1"/><circle cx="278" cy="691.5" r="2" style="fill:#000" class="net_11 width_1"/><line x1="278" x2="373" y1="852" y2="852" class="net_11 width_1" style="stroke-width: 1"/><line x1="248" x2="298.5" y1="751.5" y2="751.5" class="net_12 width_1" style="stroke-width: 1"/><line x1="248" x2="268" y1="751.5" y2="751.5" class="net_12 width_1" style="stroke-width: 1"/><line x1="268" x2="268" y1="751.5" y2="872" class="net_12 width_1" style="stroke-width: 1"/><circle cx="268" cy="751.5" r="2" style="fill:#000" class="net_12 width_1"/><line x1="268" x2="373" y1="872" y2="872" class="net_12 width_1" style="stroke-width: 1"/><line x1="379" x2="453" y1="842" y2="842" class="net_10,11,12,13 width_4" style="stroke-width: 2"/><line x1="379" x2="453" y1="235" y2="235" class="net_14,15,16,17 width_4" style="stroke-width: 2"/><line x1="379" x2="453" y1="338" y2="338" class="net_18,19,20,21 width_4" style="stroke-width: 2"/><line x1="379" x2="453" y1="641.5" y2="641.5" class="net_22,23,24,25 width_4" style="stroke-width: 2"/><line x1="379" x2="453" y1="34.5" y2="34.5" class="net_26,27,28,29 width_4" style="stroke-width: 2"/><line x1="331" x2="373" y1="328" y2="328" class="net_18 width_1" style="stroke-width: 1"/><line x1="331" x2="341" y1="388" y2="388" class="net_19 width_1" style="stroke-width: 1"/><line x1="341" x2="341" y1="388" y2="348" class="net_19 width_1" style="stroke-width: 1"/><line x1="341" x2="373" y1="348" y2="348" class="net_19 width_1" style="stroke-width: 1"/><line x1="331" x2="351" y1="514" y2="514" class="net_20 width_1" style="stroke-width: 1"/><line x1="351" x2="351" y1="514" y2="368" class="net_20 width_1" style="stroke-width: 1"/><line x1="351" x2="373" y1="368" y2="368" class="net_20 width_1" style="stroke-width: 1"/><line x1="331" x2="373.5" y1="574" y2="574" class="net_21 width_1" style="stroke-width: 1"/><line x1="373.5" x2="373.5" y1="574" y2="388.5" class="net_21 width_1" style="stroke-width: 1"/><line x1="326.5" x2="373" y1="631.5" y2="631.5" class="net_22 width_1" style="stroke-width: 1"/><line x1="326.5" x2="341" y1="691.5" y2="691.5" class="net_23 width_1" style="stroke-width: 1"/><line x1="341" x2="341" y1="691.5" y2="651.5" class="net_23 width_1" style="stroke-width: 1"/><line x1="341" x2="373" y1="651.5" y2="651.5" class="net_23 width_1" style="stroke-width: 1"/><line x1="326.5" x2="351" y1="751.5" y2="751.5" class="net_24 width_1" style="stroke-width: 1"/><line x1="351" x2="351" y1="751.5" y2="671.5" class="net_24 width_1" style="stroke-width: 1"/><line x1="351" x2="373" y1="671.5" y2="671.5" class="net_24 width_1" style="stroke-width: 1"/><line x1="326.5" x2="373.5" y1="811.5" y2="811.5" class="net_25 width_1" style="stroke-width: 1"/><line x1="373.5" x2="373.5" y1="811.5" y2="692" class="net_25 width_1" style="stroke-width: 1"/><line x1="326.5" x2="373" y1="24.5" y2="24.5" class="net_26 width_1" style="stroke-width: 1"/><line x1="326.5" x2="341" y1="84.5" y2="84.5" class="net_27 width_1" style="stroke-width: 1"/><line x1="341" x2="341" y1="84.5" y2="44.5" class="net_27 width_1" style="stroke-width: 1"/><line x1="341" x2="373" y1="44.5" y2="44.5" class="net_27 width_1" style="stroke-width: 1"/><line x1="326.5" x2="351" y1="144.5" y2="144.5" class="net_28 width_1" style="stroke-width: 1"/><line x1="351" x2="351" y1="144.5" y2="64.5" class="net_28 width_1" style="stroke-width: 1"/><line x1="351" x2="373" y1="64.5" y2="64.5" class="net_28 width_1" style="stroke-width: 1"/><line x1="326.5" x2="373.5" y1="204.5" y2="204.5" class="net_29 width_1" style="stroke-width: 1"/><line x1="373.5" x2="373.5" y1="204.5" y2="85" class="net_29 width_1" style="stroke-width: 1"/><line x1="42" x2="116" y1="350.5" y2="350.5" class="net_6,7,8,9 width_4" style="stroke-width: 2"/><line x1="42" x2="116" y1="465.5" y2="465.5" class="net_2,3,4,5 width_4" style="stroke-width: 2"/><rect x="415" y="837" width="16" height="9" class="net_10,11,12,13 width_4 busLabel_4" style="fill: white; stroke: none"/><text x="414" y="845" class="net_10,11,12,13 width_4 busLabel_4">/4/</text><rect x="415" y="230" width="16" height="9" class="net_14,15,16,17 width_4 busLabel_4" style="fill: white; stroke: none"/><text x="414" y="238" class="net_14,15,16,17 width_4 busLabel_4">/4/</text><rect x="415" y="333" width="16" height="9" class="net_18,19,20,21 width_4 busLabel_4" style="fill: white; stroke: none"/><text x="414" y="341" class="net_18,19,20,21 width_4 busLabel_4">/4/</text><rect x="415" y="636.5" width="16" height="9" class="net_22,23,24,25 width_4 busLabel_4" style="fill: white; stroke: none"/><text x="414" y="644.5" class="net_22,23,24,25 width_4 busLabel_4">/4/</text><rect x="415" y="29.5" width="16" height="9" class="net_26,27,28,29 width_4 busLabel_4" style="fill: white; stroke: none"/><text x="414" y="37.5" class="net_26,27,28,29 width_4 busLabel_4">/4/</text><rect x="78" y="345.5" width="16" height="9" class="net_6,7,8,9 width_4 busLabel_4" style="fill: white; stroke: none"/><text x="77" y="353.5" class="net_6,7,8,9 width_4 busLabel_4">/4/</text><rect x="78" y="460.5" width="16" height="9" class="net_2,3,4,5 width_4 busLabel_4" style="fill: white; stroke: none"/><text x="77" y="468.5" class="net_2,3,4,5 width_4 busLabel_4">/4/</text></svg>