<svg xmlns="http://www.w3.org/2000/svg" xmlns:xlink="http://www.w3.org/1999/xlink" xmlns:s="https://github.com/nturley/netlistsvg" width="283" height="108"><style>svg {
  stroke:#000;
  fill:none;
}
text {
  fill:#000;
  stroke:none;
  font-size:10px;
  font-weight: bold;
  font-family: "Courier New", monospace;
}
line {
    stroke-linecap: round;
}
.nodelabel {
  text-anchor: middle;
}
.inputPortLabel {
  text-anchor: end;
}
.splitjoinBody {
  fill:#000;
}</style><g s:type="tribuf" transform="translate(142,66)" s:width="15" s:height="30" id="cell_$ternary$ex410.sv:4$1"><s:alias val="$tribuf"/><s:alias val="$_TRIBUF_"/><s:alias val="tribuf-bus"/><s:alias val="$tribuf-bus"/><s:alias val="$_TRIBUF_-bus"/><path d="M0,0 L25,15 L0,30 Z" class="cell_$ternary$ex410.sv:4$1"/><g s:x="0" s:y="15" s:pid="A"/><g s:x="11" s:y="6" s:pid="EN"/><g s:x="25" s:y="15" s:pid="Y"/></g><g s:type="inputExt" transform="translate(12,71)" s:width="30" s:height="20" id="cell_a"><text x="15" y="-4" class="nodelabel cell_a" s:attribute="ref">a</text><s:alias val="$_inputExt_"/><path d="M0,0 L0,20 L15,20 L30,10 L15,0 Z" class="cell_a"/><g s:x="30" s:y="10" s:pid="Y"/></g><g s:type="inputExt" transform="translate(77,22)" s:width="30" s:height="20" id="cell_en"><text x="15" y="-4" class="nodelabel cell_en" s:attribute="ref">en</text><s:alias val="$_inputExt_"/><path d="M0,0 L0,20 L15,20 L30,10 L15,0 Z" class="cell_en"/><g s:x="30" s:y="10" s:pid="Y"/></g><g s:type="outputExt" transform="translate(241,71)" s:width="30" s:height="20" id="cell_y"><text x="15" y="-4" class="nodelabel cell_y" s:attribute="ref">y</text><s:alias val="$_outputExt_"/><path d="M30,0 L30,20 L15,20 L0,10 L15,0 Z" class="cell_y"/><g s:x="0" s:y="10" s:pid="A"/></g><line x1="42" x2="142" y1="81" y2="81" class="net_2,3,4,5 width_4" style="stroke-width: 2"/><line x1="107" x2="153" y1="32" y2="32" class="net_6 width_1" style="stroke-width: 1"/><line x1="153" x2="153" y1="32" y2="72" class="net_6 width_1" style="stroke-width: 1"/><line x1="167" x2="241" y1="81" y2="81" class="net_7,8,9,10 width_4" style="stroke-width: 2"/><rect x="91" y="76" width="16" height="9" class="net_2,3,4,5 width_4 busLabel_4" style="fill: white; stroke: none"/><text x="90" y="84" class="net_2,3,4,5 width_4 busLabel_4">/4/</text><rect x="203" y="76" width="16" height="9" class="net_7,8,9,10 width_4 busLabel_4" style="fill: white; stroke: none"/><text x="202" y="84" class="net_7,8,9,10 width_4 busLabel_4">/4/</text></svg>