<svg xmlns="http://www.w3.org/2000/svg" xmlns:xlink="http://www.w3.org/1999/xlink" xmlns:s="https://github.com/nturley/netlistsvg" width="263" height="54"><style>svg {
  stroke:#000;
  fill:none;
}
text {
  fill:#000;
  stroke:none;
  font-size:10px;
  font-weight: bold;
  font-family: "Courier New", monospace;
}
line {
    stroke-linecap: round;
}
.nodelabel {
  text-anchor: middle;
}
.inputPortLabel {
  text-anchor: end;
}
.splitjoinBody {
  fill:#000;
}</style><g s:type="not" transform="translate(117,22)" s:width="30" s:height="20" id="cell_$not$ex422a.sv:4$2"><s:alias val="$_NOT_"/><s:alias val="$not"/><s:alias val="$logic_not"/><path d="M0,0 L0,20 L20,10 Z" class="cell_$not$ex422a.sv:4$2"/><circle cx="24" cy="10" r="3" class="cell_$not$ex422a.sv:4$2"/><g s:x="-1" s:y="10" s:pid="A"/><g s:x="27" s:y="10" s:pid="Y"/></g><g s:type="inputExt" transform="translate(12,22)" s:width="30" s:height="20" id="cell_a"><text x="15" y="-4" class="nodelabel cell_a" s:attribute="ref">a</text><s:alias val="$_inputExt_"/><path d="M0,0 L0,20 L15,20 L30,10 L15,0 Z" class="cell_a"/><g s:x="30" s:y="10" s:pid="Y"/></g><g s:type="outputExt" transform="translate(221,22)" s:width="30" s:height="20" id="cell_y"><text x="15" y="-4" class="nodelabel cell_y" s:attribute="ref">y</text><s:alias val="$_outputExt_"/><path d="M30,0 L30,20 L15,20 L0,10 L15,0 Z" class="cell_y"/><g s:x="0" s:y="10" s:pid="A"/></g><line x1="42" x2="116" y1="32" y2="32" class="net_2,3,4,5 width_4" style="stroke-width: 2"/><line x1="144" x2="221" y1="32" y2="32" class="net_6,7,8,9 width_4" style="stroke-width: 2"/><rect x="78" y="27" width="16" height="9" class="net_2,3,4,5 width_4 busLabel_4" style="fill: white; stroke: none"/><text x="77" y="35" class="net_2,3,4,5 width_4 busLabel_4">/4/</text><rect x="183" y="27" width="16" height="9" class="net_6,7,8,9 width_4 busLabel_4" style="fill: white; stroke: none"/><text x="182" y="35" class="net_6,7,8,9 width_4 busLabel_4">/4/</text></svg>