<svg xmlns="http://www.w3.org/2000/svg" xmlns:xlink="http://www.w3.org/1999/xlink" xmlns:s="https://github.com/nturley/netlistsvg" width="363" height="209"><style>svg {
  stroke:#000;
  fill:none;
}
text {
  fill:#000;
  stroke:none;
  font-size:10px;
  font-weight: bold;
  font-family: "Courier New", monospace;
}
line {
    stroke-linecap: round;
}
.nodelabel {
  text-anchor: middle;
}
.inputPortLabel {
  text-anchor: end;
}
.splitjoinBody {
  fill:#000;
}</style><g s:type="not" transform="translate(169,12)" s:width="30" s:height="20" id="cell_$abc$88$auto$blifparse.cc:396:parse_blif$89"><s:alias val="$_NOT_"/><s:alias val="$not"/><s:alias val="$logic_not"/><path d="M0,0 L0,20 L20,10 Z" class="cell_$abc$88$auto$blifparse.cc:396:parse_blif$89"/><circle cx="24" cy="10" r="3" class="cell_$abc$88$auto$blifparse.cc:396:parse_blif$89"/><g s:x="-1" s:y="10" s:pid="A"/><g s:x="27" s:y="10" s:pid="Y"/></g><g s:type="not" transform="translate(169,67)" s:width="30" s:height="20" id="cell_$abc$88$auto$blifparse.cc:396:parse_blif$90"><s:alias val="$_NOT_"/><s:alias val="$not"/><s:alias val="$logic_not"/><path d="M0,0 L0,20 L20,10 Z" class="cell_$abc$88$auto$blifparse.cc:396:parse_blif$90"/><circle cx="24" cy="10" r="3" class="cell_$abc$88$auto$blifparse.cc:396:parse_blif$90"/><g s:x="-1" s:y="10" s:pid="A"/><g s:x="27" s:y="10" s:pid="Y"/></g><g s:type="not" transform="translate(169,122)" s:width="30" s:height="20" id="cell_$abc$88$auto$blifparse.cc:396:parse_blif$91"><s:alias val="$_NOT_"/><s:alias val="$not"/><s:alias val="$logic_not"/><path d="M0,0 L0,20 L20,10 Z" class="cell_$abc$88$auto$blifparse.cc:396:parse_blif$91"/><circle cx="24" cy="10" r="3" class="cell_$abc$88$auto$blifparse.cc:396:parse_blif$91"/><g s:x="-1" s:y="10" s:pid="A"/><g s:x="27" s:y="10" s:pid="Y"/></g><g s:type="not" transform="translate(169,177)" s:width="30" s:height="20" id="cell_$abc$88$auto$blifparse.cc:396:parse_blif$92"><s:alias val="$_NOT_"/><s:alias val="$not"/><s:alias val="$logic_not"/><path d="M0,0 L0,20 L20,10 Z" class="cell_$abc$88$auto$blifparse.cc:396:parse_blif$92"/><circle cx="24" cy="10" r="3" class="cell_$abc$88$auto$blifparse.cc:396:parse_blif$92"/><g s:x="-1" s:y="10" s:pid="A"/><g s:x="27" s:y="10" s:pid="Y"/></g><g s:type="inputExt" transform="translate(12,127)" s:width="30" s:height="20" id="cell_a"><text x="15" y="-4" class="nodelabel cell_a" s:attribute="ref">a</text><s:alias val="$_inputExt_"/><path d="M0,0 L0,20 L15,20 L30,10 L15,0 Z" class="cell_a"/><g s:x="30" s:y="10" s:pid="Y"/></g><g s:type="outputExt" transform="translate(321,57)" s:width="30" s:height="20" id="cell_y"><text x="15" y="-4" class="nodelabel cell_y" s:attribute="ref">y</text><s:alias val="$_outputExt_"/><path d="M30,0 L30,20 L15,20 L0,10 L15,0 Z" class="cell_y"/><g s:x="0" s:y="10" s:pid="A"/></g><g s:type="join" transform="translate(241,46.5)" s:width="4" s:height="40" id="cell_$join$,6,7,8,9,"><rect width="5" height="80" class="splitjoinBody" s:generic="body"/><s:alias val="$_join_"/><g s:x="5" s:y="20" s:pid="out"/><g transform="translate(0,10)" s:x="0" s:y="10" s:pid="in0"><text x="-3" y="-4" class="inputPortLabel">0</text></g><g transform="translate(0,30)" s:x="0" s:y="10" s:pid="in0"><text x="-3" y="-4" class="inputPortLabel">1</text></g><g transform="translate(0,50)" s:x="0" s:y="10" s:pid="in0"><text x="-3" y="-4" class="inputPortLabel">2</text></g><g transform="translate(0,70)" s:x="0" s:y="10" s:pid="in0"><text x="-3" y="-4" class="inputPortLabel">3</text></g></g><g s:type="split" transform="translate(116,116.5)" s:width="5" s:height="40" id="cell_$split$,2,3,4,5,"><rect width="5" height="80" class="splitjoinBody" s:generic="body"/><s:alias val="$_split_"/><g s:x="0" s:y="20" s:pid="in"/><g transform="translate(4,10)" s:x="4" s:y="10" s:pid="out0"><text x="5" y="-4">0</text></g><g transform="translate(4,30)" s:x="4" s:y="10" s:pid="out0"><text x="5" y="-4">1</text></g><g transform="translate(4,50)" s:x="4" s:y="10" s:pid="out0"><text x="5" y="-4">2</text></g><g transform="translate(4,70)" s:x="4" s:y="10" s:pid="out0"><text x="5" y="-4">3</text></g></g><line x1="121" x2="138" y1="127" y2="127" class="net_2 width_1" style="stroke-width: 1"/><line x1="138" x2="138" y1="127" y2="22" class="net_2 width_1" style="stroke-width: 1"/><line x1="138" x2="168" y1="22" y2="22" class="net_2 width_1" style="stroke-width: 1"/><line x1="121" x2="148" y1="147" y2="147" class="net_3 width_1" style="stroke-width: 1"/><line x1="148" x2="148" y1="147" y2="77" class="net_3 width_1" style="stroke-width: 1"/><line x1="148" x2="168" y1="77" y2="77" class="net_3 width_1" style="stroke-width: 1"/><line x1="121" x2="158" y1="167" y2="167" class="net_4 width_1" style="stroke-width: 1"/><line x1="158" x2="158" y1="167" y2="132" class="net_4 width_1" style="stroke-width: 1"/><line x1="158" x2="168" y1="132" y2="132" class="net_4 width_1" style="stroke-width: 1"/><line x1="121" x2="168" y1="187" y2="187" class="net_5 width_1" style="stroke-width: 1"/><line x1="247" x2="321" y1="67" y2="67" class="net_6,7,8,9 width_4" style="stroke-width: 2"/><line x1="196" x2="209" y1="22" y2="22" class="net_6 width_1" style="stroke-width: 1"/><line x1="209" x2="209" y1="22" y2="57" class="net_6 width_1" style="stroke-width: 1"/><line x1="209" x2="241" y1="57" y2="57" class="net_6 width_1" style="stroke-width: 1"/><line x1="196" x2="241" y1="77" y2="77" class="net_7 width_1" style="stroke-width: 1"/><line x1="196" x2="209" y1="132" y2="132" class="net_8 width_1" style="stroke-width: 1"/><line x1="209" x2="209" y1="132" y2="97" class="net_8 width_1" style="stroke-width: 1"/><line x1="209" x2="241" y1="97" y2="97" class="net_8 width_1" style="stroke-width: 1"/><line x1="196" x2="241.5" y1="187" y2="187" class="net_9 width_1" style="stroke-width: 1"/><line x1="241.5" x2="241.5" y1="187" y2="117.5" class="net_9 width_1" style="stroke-width: 1"/><line x1="42" x2="116" y1="137" y2="137" class="net_2,3,4,5 width_4" style="stroke-width: 2"/><rect x="283" y="62" width="16" height="9" class="net_6,7,8,9 width_4 busLabel_4" style="fill: white; stroke: none"/><text x="282" y="70" class="net_6,7,8,9 width_4 busLabel_4">/4/</text><rect x="78" y="132" width="16" height="9" class="net_2,3,4,5 width_4 busLabel_4" style="fill: white; stroke: none"/><text x="77" y="140" class="net_2,3,4,5 width_4 busLabel_4">/4/</text></svg>